<?xml version="1.0" encoding="UTF-8"?>
<svg version="1.1" viewBox="0 0 1576 1600" width="1280" height="1280" xmlns="http://www.w3.org/2000/svg">
<path transform="translate(0)" d="m0 0h1576v1600h-1576v-1600z" fill="#FBFEFE"/>
<path transform="translate(256 275)" d="m0 0c1.21 3.12e-4 2.43 6.24e-4 3.67 9.45e-4 0.678-0.00256 1.36-0.00511 2.05-0.00775 2.3-0.00618 4.59 0.00203 6.89 0.01 1.66-0.00148 3.32-0.00383 4.98-0.00699 4.6-0.00617 9.2 2.42e-4 13.8 0.00856 4.99 0.00684 9.98 0.00213 15-0.00115 8.76-0.00416 17.5-8.41e-4 26.3 0.00728 13 0.012 26 0.0127 39.1 0.0109 21.9-0.00263 43.8 0.00406 65.7 0.016 21.7 0.0118 43.4 0.0195 65.1 0.0217 1.01 1.03e-4 1.01 1.03e-4 2.04 2.09e-4 6.15 6.26e-4 12.3 0.0012 18.4 0.00172 15.3 0.00128 30.6 0.0032 45.9 0.00555 1.04 1.6e-4 1.04 1.6e-4 2.11 3.23e-4 33.9 0.00525 67.8 0.0179 102 0.0311 11.8 0.00458 23.5 0.00913 35.3 0.0135 1.09 4.11e-4 1.09 4.11e-4 2.21 8.3e-4 33.9 0.0127 67.8 0.0201 102 0.0262 2.2 3.96e-4 4.4 7.95e-4 6.6 0.00119 14.6 0.00264 29.2 0.00519 43.7 0.00768 29 0.00495 58 0.0104 87 0.0163 1.38 2.78e-4 2.76 5.57e-4 4.15 8.34e-4 87.7 0.0176 175 0.0474 276 0.0843 1.51 3.03 1.14 6.16 1.13 9.48 0.0034 1.17 0.0034 1.17 0.00687 2.36 0.00636 2.63 0.00551 5.26 0.00469 7.89 0.00299 1.88 0.00639 3.76 0.0102 5.64 0.00886 5.13 0.0112 10.3 0.0118 15.4 7.11e-4 3.21 0.00285 6.42 0.0055 9.64 0.00927 11.2 0.0133 22.5 0.0125 33.7-5.97e-4 10.4 0.00988 20.8 0.0257 31.3 0.0132 8.97 0.0184 17.9 0.0178 26.9-2.53e-4 5.35 0.00248 10.7 0.0132 16 0.107 57.2 0.107 57.2-4.99 77.3-0.265 1.08-0.531 2.16-0.804 3.28-11 43.4-40.1 80.8-78.4 104-30.4 17.8-63.5 24.5-98.4 24.5-1.85 4.37e-4 -3.69 0.00131-5.54 0.00259-5.05 0.00223-10.1-0.00175-15.1-0.00678-5.45-0.00433-10.9-0.00286-16.4-0.0021-9.44 5.24e-4 -18.9-0.00261-28.3-0.00824-13.6-0.00814-27.3-0.0107-40.9-0.012-22.1-0.00219-44.3-0.00883-66.4-0.0183-21.5-0.00919-43-0.0163-64.5-0.0205-0.663-1.32e-4 -1.33-2.63e-4 -2.01-3.99e-4 -7.32-0.00145-14.6-0.00284-22-0.00421-55.2-0.0104-110-0.028-165-0.0503 3.8e-4 1.29 7.59e-4 2.57 0.00115 3.9 0.0167 56.7 0.0321 113 0.0412 170 1.38e-4 0.857 2.76e-4 1.71 4.18e-4 2.6 0.00299 18.6 0.00576 37.2 0.0083 55.9 0.00125 9.13 0.00254 18.3 0.00387 27.4 1.31e-4 0.909 2.62e-4 1.82 3.96e-4 2.75 0.00427 29.5 0.0118 59 0.021 88.4 0.00942 30.3 0.0156 60.6 0.0176 90.9 2.88e-4 4.27 6.14e-4 8.54 9.62e-4 12.8 6.74e-5 0.841 1.35e-4 1.68 2.04e-4 2.55 0.00118 13.6 0.00583 27.1 0.0118 40.7 0.00587 13.6 0.00814 27.2 0.00667 40.9-7.64e-4 8.1 0.00129 16.2 0.0073 24.3 0.00417 6.03 0.00318 12.1 1.01e-4 18.1-4.26e-4 2.45 8.72e-4 4.91 0.00398 7.36 0.00396 3.31 0.00188 6.62-0.00184 9.94 0.00263 0.973 0.00525 1.95 0.00796 2.95-0.00225 0.874-0.00449 1.75-0.00681 2.65 1.56e-4 0.759 3.12e-4 1.52 4.73e-4 2.3-0.125 1.72-0.125 1.72-1.12 2.72-1.52 0.1-3.05 0.131-4.58 0.134-0.995 0.00446-1.99 0.00892-3.02 0.0135-1.11-1.84e-4 -2.21-3.69e-4 -3.35-5.59e-4 -1.75 0.00552-1.75 0.00552-3.53 0.0111-3.25 0.00915-6.5 0.0137-9.75 0.0164-3.5 0.0039-7 0.0135-10.5 0.0222-8.47 0.0198-16.9 0.0298-25.4 0.0387-3.99 0.00438-7.98 0.00975-12 0.015-13.3 0.017-26.5 0.0315-39.8 0.0387-3.45 0.00191-6.89 0.00383-10.3 0.00579-0.857 4.84e-4 -1.71 9.67e-4 -2.6 0.00147-13.8 0.00828-27.7 0.0336-41.5 0.0661-14.2 0.0331-28.4 0.0511-42.7 0.0543-7.98 0.00216-16 0.0108-23.9 0.0365-6.81 0.0218-13.6 0.0297-20.4 0.02-3.47-0.00452-6.93-0.0028-10.4 0.0168-14 0.0659-26.9 0.0363-40.2-4.49-1.75-0.568-1.75-0.568-3.53-1.15-8.7-2.93-16-7.7-23.5-12.9-0.99-0.66-1.98-1.32-3-2v-2c-0.557-0.247-1.11-0.495-1.69-0.75-2.76-1.49-5-3.12-7.31-5.25-0.352-1.33-0.688-2.66-1-4-0.884-0.377-0.884-0.377-1.79-0.762-9.08-5.07-14.3-22.5-17-31.9-2.22-8.72-2.65-17-2.6-25.9-0.00283-1.55-0.00698-3.1-0.0123-4.64-0.0108-4.24-0.00306-8.47 0.00783-12.7 0.00854-4.62-3.92e-4 -9.23-0.00706-13.8-0.00928-8.08-0.00745-16.2 0.00173-24.2 0.0136-12 0.01-24 0.00304-36.1-0.0119-21.5-0.00684-42.9 0.00528-64.4 0.0105-18.8 0.0151-37.6 0.0137-56.3-8.4e-5 -1.25-1.68e-4 -2.49-2.55e-4 -3.77-3.52e-4 -5.05-7.36e-4 -10.1-0.00117-15.2-0.00295-35.3-6.05e-4 -70.5 0.0139-106 4.1e-4 -0.997 4.1e-4 -0.997 8.28e-4 -2.01 0.00445-10.8 0.00917-21.6 0.0139-32.4 0.0188-42.8 0.0252-85.6 0.0196-128-3.47e-4 -2.71-6.93e-4 -5.42-0.00104-8.12-8.56e-5 -0.67-1.71e-4 -1.34-2.59e-4 -2.03-9.46e-4 -7.41-0.00186-14.8-0.00273-22.2-7.89e-5 -0.665-1.58e-4 -1.33-2.39e-4 -2.01-0.00422-35.9 0.00108-71.7 0.00975-108 9.07e-4 -3.78 0.00181-7.57 0.00272-11.4 6.01e-4 -2.51 0.00121-5.02 0.00183-7.53 0.00423-17.5 0.0048-35.1 0.00289-52.6-0.00244-22.6 0.00159-45.2 0.0172-67.7 0.00808-12 0.0106-23.9 0.00536-35.9-0.00296-7.97 0.00128-15.9 0.0115-23.9 0.00566-4.55 0.00808-9.1 0.00183-13.6-0.0056-4.13-0.00217-8.26 0.0088-12.4 0.00233-1.49 0.00123-2.99-0.00352-4.48-0.00593-2.01 0.00147-4.02 0.00968-6.04 3.59e-4 -1.12 7.19e-4 -2.24 0.00109-3.39 0.362-3.77 1.32-4.53 5.06-4.86z" fill="#12391A"/>
<path transform="translate(255 275)" d="m0 0c0.847 7.59e-4 1.69 0.00152 2.57 0.0023 0.976-0.00398 1.95-0.00796 2.96-0.0121 1.62 0.00874 1.62 0.00874 3.27 0.0177 1.14-0.00171 2.28-0.00342 3.46-0.00518 3.18-0.00273 6.35 0.00355 9.53 0.0136 3.42 0.00861 6.84 0.00572 10.3 0.0042 5.93-0.00105 11.9 0.00524 17.8 0.0165 8.58 0.0162 17.2 0.0215 25.7 0.024 13.9 0.00438 27.8 0.0177 41.7 0.0366 13.5 0.0183 27 0.0325 40.6 0.041 0.833 5.25e-4 1.67 0.00105 2.52 0.00159 4.18 0.00261 8.36 0.00514 12.5 0.00762 34.7 0.0207 69.4 0.056 104 0.101 0.66 1.32 1.32 2.64 2 4h-10v2c-1.32 0.33-2.64 0.66-4 1 0.33 0.99 0.66 1.98 1 3 0.66 0.33 1.32 0.66 2 1-1.49 0.495-1.49 0.495-3 1 0.33 0.99 0.66 1.98 1 3 1.98 0.99 1.98 0.99 4 2-0.66 3.3-1.32 6.6-2 10-1.65 0.33-3.3 0.66-5 1 0.14 1.48 0.288 2.96 0.438 4.44 0.0812 0.824 0.162 1.65 0.246 2.5 0.106 2.05 0.106 2.05 1.32 3.07v7c0.153 0.592 0.306 1.18 0.464 1.79 2.72 11.2 1.63 24 1.45 35.5-0.0438 2.97-0.0797 5.94-0.114 8.9-0.0512 4.42-0.105 8.84-0.16 13.3-0.156 12.7-0.278 25.4-0.39 38.1-0.00611 0.69-0.0122 1.38-0.0185 2.09-0.328 37.4-0.318 74.7-0.289 112 0.00213 2.76 0.00415 5.51 0.00616 8.27 0.0149 20.2 0.0355 40.4 0.0591 60.5 0.0288 24.6 0.0467 49.3 0.0611 73.9 0.00311 5.3 0.00633 10.6 0.00954 15.9 6.4e-4 1.06 0.00128 2.11 0.00194 3.2 0.0013 2.14 0.0026 4.27 0.00389 6.41 0.0013 2.14 0.0026 4.29 0.0039 6.43 0.0151 25 0.0323 50 0.0509 75 8.06e-4 1.09 0.00161 2.18 0.00244 3.3 0.0264 35.6 0.0632 71.1 0.104 107 0.0421 36.8 0.0709 73.6 0.0839 110 0.00185 5.19 0.00387 10.4 6e-3 15.6 4.16e-4 1.02 8.32e-4 2.04 0.00126 3.09 0.00711 16.4 0.0285 32.8 0.0555 49.2 0.0268 16.4 0.0394 32.8 0.0371 49.2-8.69e-4 9.73 0.00951 19.5 0.0358 29.2 0.0165 6.49 0.0185 13 0.00868 19.5-0.00518 3.7-0.00398 7.4 0.0149 11.1 0.0201 3.98 0.00938 7.96-0.00446 11.9 0.0108 1.15 0.0216 2.3 0.0327 3.48-0.056 6.82-1.07 11-4.52 16.9-0.67 3.11-0.67 3.11-0.75 6-0.0567 0.949-0.113 1.9-0.172 2.88-0.0258 0.701-0.0516 1.4-0.0781 2.12h2v2h3c0.33 0.99 0.66 1.98 1 3 0.66 0.66 1.32 1.32 2 2-0.66 0.99-1.32 1.98-2 3-3.62 0.188-3.62 0.188-7 0v2h-6c-1.46 2.65-2 3.89-2 7-0.306 1.34-0.635 2.68-1 4 4.57 2.25 8.82 2.42 13.8 2.62 0.788 0.0387 1.58 0.0773 2.39 0.117 1.93 0.0937 3.87 0.177 5.8 0.258 0.33 0.66 0.66 1.32 1 2-26.2 0.753-52.4 1.18-78.6 1.24-1.74 0.00407-3.47 0.00819-5.21 0.0124-8.13 0.0188-16.3 0.0331-24.4 0.0416-9.27 0.00986-18.5 0.0365-27.8 0.0765-7.27 0.0303-14.5 0.045-21.8 0.0483-4.3 0.00233-8.6 0.011-12.9 0.0365-4.03 0.0235-8.05 0.0274-12.1 0.0172-1.46-4.9e-4 -2.92 0.00566-4.38 0.0196-21.2 0.19-39.5-6.62-56.8-18.5-0.99-0.66-1.98-1.32-3-2v-2c-0.557-0.247-1.11-0.495-1.69-0.75-2.76-1.49-5-3.12-7.31-5.25-0.352-1.33-0.688-2.66-1-4-0.884-0.377-0.884-0.377-1.79-0.762-9.08-5.07-14.3-22.5-17-31.9-2.22-8.72-2.65-17-2.6-25.9-0.00283-1.55-0.00698-3.1-0.0123-4.64-0.0108-4.24-0.00306-8.47 0.00783-12.7 0.00854-4.62-3.92e-4 -9.23-0.00706-13.8-0.00928-8.08-0.00745-16.2 0.00173-24.2 0.0136-12 0.01-24 0.00304-36.1-0.0119-21.5-0.00684-42.9 0.00528-64.4 0.0105-18.8 0.0151-37.6 0.0137-56.3-8.4e-5 -1.25-1.68e-4 -2.49-2.55e-4 -3.77-3.52e-4 -5.05-7.36e-4 -10.1-0.00117-15.2-0.00295-35.3-6.05e-4 -70.5 0.0139-106 4.1e-4 -0.997 4.1e-4 -0.997 8.28e-4 -2.01 0.00445-10.8 0.00917-21.6 0.0139-32.4 0.0188-42.8 0.0252-85.6 0.0196-128-3.47e-4 -2.71-6.93e-4 -5.42-0.00104-8.12-8.56e-5 -0.67-1.71e-4 -1.34-2.59e-4 -2.03-9.46e-4 -7.41-0.00186-14.8-0.00273-22.2-7.89e-5 -0.665-1.58e-4 -1.33-2.39e-4 -2.01-0.00422-35.9 0.00108-71.7 0.00975-108 9.07e-4 -3.78 0.00181-7.57 0.00272-11.4 6.01e-4 -2.51 0.00121-5.02 0.00183-7.53 0.00423-17.5 0.0048-35.1 0.00289-52.6-0.00244-22.6 0.00159-45.2 0.0172-67.7 0.00808-12 0.0106-23.9 0.00536-35.9-0.00296-7.97 0.00128-15.9 0.0115-23.9 0.00566-4.55 0.00808-9.1 0.00183-13.6-0.0056-4.13-0.00217-8.26 0.0088-12.4 0.00233-1.49 0.00123-2.99-0.00352-4.48-0.00593-2.01 0.00147-4.02 0.00968-6.04 3.59e-4 -1.12 7.19e-4 -2.24 0.00109-3.39 0.309-3.21 0.974-4.45 4.29-4.86z" fill="#11411D"/>
<path transform="translate(772 762)" d="m0 0c1.96-0.00259 3.91-0.0056 5.87-9e-3 5.35-0.00802 10.7-0.00986 16-0.0106 5.78-0.00186 11.6-0.00941 17.3-0.0161 12.6-0.0135 25.2-0.0196 37.8-0.024 7.87-0.00277 15.7-7e-3 23.6-0.0115 21.8-0.0122 43.6-0.0225 65.4-0.0259 1.41-2.22e-4 2.81-4.43e-4 4.22-6.65e-4 1.41-2.21e-4 2.82-4.41e-4 4.23-6.61e-4 2.83-4.43e-4 5.66-8.9e-4 8.49-0.00134 1.05-1.64e-4 1.05-1.64e-4 2.13-3.31e-4 22.8-0.00364 45.6-0.0196 68.4-0.0429 24.1-0.0246 48.2-0.0383 72.3-0.0395 13.1-9.18e-4 26.3-0.00671 39.4-0.0248 11.2-0.0153 22.4-0.0206 33.5-0.0123 5.71 0.00392 11.4 0.00289 17.1-0.0111 5.21-0.0126 10.4-0.0116 15.6 5.91e-4 1.89 0.00197 3.79-0.0012 5.68-0.00984 2.56-0.0109 5.12-0.00371 7.68 0.00839 1.12-0.0114 1.12-0.0114 2.27-0.023 2.05 0.0212 2.05 0.0212 5.31 0.395 2.37 3.56 2.26 5.07 2.27 9.29 0.00453 0.641 0.00906 1.28 0.0137 1.94 0.0127 2.15 0.011 4.31 0.00937 6.46 0.00598 1.54 0.0128 3.09 0.0204 4.63 0.0177 4.2 0.0224 8.4 0.0236 12.6 0.00142 2.63 0.00569 5.26 0.011 7.89 0.0185 9.21 0.0267 18.4 0.0251 27.6-0.00119 8.54 0.0198 17.1 0.0515 25.6 0.0263 7.35 0.0369 14.7 0.0356 22.1-5.05e-4 4.38 0.00494 8.76 0.0264 13.1 0.154 33.8-2 63.4-26.7 89-13.7 13.6-30.6 22.1-49.8 24.8-1.07 0.171-2.14 0.341-3.24 0.517-3.62 0.465-7.06 0.606-10.7 0.603-0.663 8.54e-4 -1.33 0.00171-2.01 0.00259-2.2 0.00164-4.41-0.00383-6.61-0.00932-1.59-2.82e-4 -3.17-1.23e-4 -4.76 4.43e-4 -4.29 2.86e-4 -8.59-0.00558-12.9-0.0126-4.49-0.00626-8.99-0.00684-13.5-0.00803-8.5-0.0031-17-0.0113-25.5-0.0213-9.68-0.0112-19.4-0.0167-29-0.0217-19.9-0.0104-39.8-0.028-59.7-0.0503 0.00138 1.87 0.00138 1.87 0.00279 3.78 0.0216 29.6 0.0381 59.1 0.0483 88.7 0.00125 3.63 0.00255 7.27 0.00387 10.9 3.93e-4 1.09 3.93e-4 1.09 7.95e-4 2.19 0.00436 11.7 0.0122 23.5 0.0214 35.2 0.00934 12 0.0149 24.1 0.0169 36.1 0.00125 6.76 0.00427 13.5 0.0116 20.3 0.00676 6.35 0.00889 12.7 0.00738 19.1 2.77e-4 2.34 0.00228 4.68 0.0061 7.02 0.00493 3.18 0.0038 6.36 0.00105 9.54 0.00437 1.41 0.00437 1.41 0.00883 2.84-0.015 6.35-0.015 6.35-1.13 7.46-2.13 0.101-4.27 0.131-6.4 0.134-0.676 0.00227-1.35 0.00453-2.05 0.00687-2.28 0.00637-4.57 0.00551-6.85 0.00469-1.63 0.00299-3.26 0.00639-4.89 0.0102-4.44 0.00887-8.89 0.0112-13.3 0.0118-3.71 9.48e-4 -7.42 0.00463-11.1 0.00817-8.76 0.00816-17.5 0.0106-26.3 0.00987-9.03-6e-4 -18.1 0.00993-27.1 0.0257-7.75 0.0131-15.5 0.0184-23.3 0.0178-4.63-2.55e-4 -9.26 0.00258-13.9 0.0132-4.36 0.00971-8.72 0.00974-13.1 0.00248-1.6-0.00104-3.19 0.0013-4.79 0.00736-7.91 0.0281-15.3-0.0979-23-2.25-1.05-0.26-2.11-0.521-3.2-0.789-21.2-6.06-41.4-20.1-52.8-39.2-7.24-13.6-12.1-27.6-12.1-43.2-0.00175-0.696-0.00351-1.39-0.00531-2.11-0.00464-2.33-0.0022-4.65 2.34e-4 -6.98-0.00187-1.69-0.00417-3.38-0.00687-5.06-0.00611-4.63-0.00598-9.26-0.00481-13.9 2.04e-4 -5-0.00532-9.99-0.0101-15-0.0083-9.79-0.0111-19.6-0.0116-29.4-4.75e-4 -7.95-0.00253-15.9-0.0057-23.8-0.0088-22.5-0.0134-45.1-0.0127-67.6 4e-5 -1.21 7.99e-5 -2.43 1.21e-4 -3.68 4.09e-5 -1.22 8.18e-5 -2.43 1.24e-4 -3.68 4.07e-4 -19.7-0.00918-39.5-0.0233-59.2-0.0143-20.2-0.0213-40.5-0.0204-60.7 3.33e-4 -11.4-0.00244-22.7-0.0132-34.1-0.00907-9.67-0.0113-19.3-0.00449-29 0.00328-4.94 0.00327-9.88-0.00535-14.8-0.0078-4.52-0.0065-9.03 0.00228-13.5 0.00155-1.64-3.33e-4 -3.28-0.00586-4.92-0.00698-2.22-0.00183-4.43 0.00656-6.65-2.17e-4 -1.23-4.35e-4 -2.47-6.59e-4 -3.74 0.25-2.86 0.25-2.86 2.25-4.86 10.6-1.83 21.8-1.15 32.5-1.14z" fill="#008F46"/>
<path transform="translate(257 275)" d="m0 0c0.9-0.00564 1.8-0.0113 2.73-0.0171 0.99 0.00405 1.98 0.0081 3 0.0123 1.04-0.0035 2.08-0.00701 3.15-0.0106 3.45-0.00883 6.91-0.00296 10.4 0.00378 2.39-0.00135 4.78-0.00329 7.17-0.0058 5.02-0.00295 10 0.00135 15.1 0.0107 6.44 0.0114 12.9 0.00484 19.3-0.00714 4.94-0.00721 9.88-0.00493 14.8 2.56e-4 2.38 0.00134 4.75-3.16e-4 7.13-0.00496 3.32-0.00506 6.63 0.00263 9.95 0.0138 1.49-0.00607 1.49-0.00607 3-0.0123 1.35 0.00846 1.35 0.00846 2.73 0.0171 0.785 7.54e-4 1.57 0.00151 2.38 0.00229 1.91 0.252 1.91 0.252 3.91 2.25 0.125 2.62 0.125 2.62 0 5-2.31 0.33-4.62 0.66-7 1 1.32 1.65 2.64 3.3 4 5h-2v2h2c0.495 5.94 0.495 5.94 1 12h2c1.64 8.01 3.18 16 4.64 24.1 0.32 1.71 0.674 3.41 1.03 5.11 1.23 6.39 1.3 12.3 0.883 18.7-0.776 14-0.696 28-0.683 42 0.00257 4.03-7.35e-4 8.06-0.00324 12.1-0.00359 7.04-0.00351 14.1-9.53e-4 21.1 0.0038 10.5 0.00184 20.9-0.00121 31.4-0.00525 18.7-0.00481 37.4-0.00192 56.1 0.00252 16.4 0.00317 32.7 0.00198 49.1-7.64e-5 1.09-1.53e-4 2.18-2.31e-4 3.3-3.11e-4 4.42-6.3e-4 8.83-9.6e-4 13.2-0.00306 41.4-2.9e-4 82.8 0.0051 124 0.00474 36.7 0.00432 73.5-4.61e-4 110-0.00536 41.3-0.00747 82.6-0.00439 124 3.21e-4 4.41 6.34e-4 8.82 9.43e-4 13.2 1.19e-4 1.63 1.19e-4 1.63 2.4e-4 3.29 0.00114 16.4-1.89e-4 32.7-0.00272 49.1-0.00286 18.6-0.00213 37.2 0.00328 55.8 0.00293 10.4 0.00314 20.8-6.46e-4 31.2-0.00225 6.96-8.25e-4 13.9 0.0035 20.9 0.00236 3.96 0.00323 7.91-4.06e-4 11.9-0.018 21.1 0.0924 42.3 2.13 63.3 0.0825 0.937 0.165 1.87 0.25 2.84 0.0404 4.23 0.0404 4.23 1.75 7.79-0.338 3.45-0.813 6.51-2.04 9.75-1.13 3.83-1.08 7.02-0.957 11 0.0758 2.42 0.0924 4.84 0 7.25-0.66 0.66-1.32 1.32-2 2-0.622 2.25-1.15 4.53-1.62 6.81-0.26 1.22-0.521 2.45-0.789 3.71-0.493 2.93-0.71 5.53-0.586 8.48 3.56 2.2 6.59 2.31 10.7 2.41 1.3 0.0387 2.59 0.0773 3.93 0.117 1.36 0.0315 2.73 0.0627 4.09 0.0938 1.38 0.0382 2.76 0.0773 4.14 0.117 3.37 0.0943 6.74 0.18 10.1 0.258 0.33 0.66 0.66 1.32 1 2-9.58 0.14-19.2 0.246-28.7 0.311-4.45 0.031-8.9 0.073-13.4 0.142-23.2 0.349-43.7 0.648-63.9-12.5-1.43-0.922-1.43-0.922-2.88-1.86-5.05-3.4-5.05-3.4-7.12-5.14v-2c-0.557-0.248-1.11-0.495-1.69-0.75-2.76-1.49-5-3.12-7.31-5.25-0.352-1.33-0.688-2.66-1-4-0.884-0.377-0.884-0.377-1.79-0.762-9.08-5.07-14.3-22.5-17-31.9-2.22-8.72-2.65-17-2.6-25.9-0.00283-1.55-0.00698-3.1-0.0123-4.64-0.0108-4.24-0.00306-8.47 0.00783-12.7 0.00854-4.62-3.92e-4 -9.23-0.00706-13.8-0.00928-8.08-0.00745-16.2 0.00173-24.2 0.0136-12 0.01-24 0.00304-36.1-0.0119-21.5-0.00684-42.9 0.00528-64.4 0.0105-18.8 0.0151-37.6 0.0137-56.3-8.4e-5 -1.25-1.68e-4 -2.49-2.55e-4 -3.77-3.52e-4 -5.05-7.36e-4 -10.1-0.00117-15.2-0.00295-35.3-6.05e-4 -70.5 0.0139-106 4.1e-4 -0.997 4.1e-4 -0.997 8.28e-4 -2.01 0.00445-10.8 0.00917-21.6 0.0139-32.4 0.0188-42.8 0.0252-85.6 0.0196-128-3.47e-4 -2.71-6.93e-4 -5.42-0.00104-8.12-8.56e-5 -0.67-1.71e-4 -1.34-2.59e-4 -2.03-9.46e-4 -7.41-0.00186-14.8-0.00273-22.2-7.89e-5 -0.665-1.58e-4 -1.33-2.39e-4 -2.01-0.00422-35.9 0.00108-71.7 0.00975-108 9.07e-4 -3.78 0.00181-7.57 0.00272-11.4 6.01e-4 -2.51 0.00121-5.02 0.00183-7.53 0.00423-17.5 0.0048-35.1 0.00289-52.6-0.00244-22.6 0.00159-45.2 0.0172-67.7 0.00808-12 0.0106-23.9 0.00536-35.9-0.00296-7.97 0.00128-15.9 0.0115-23.9 0.00566-4.55 0.00808-9.1 0.00183-13.6-0.0056-4.13-0.00217-8.26 0.0088-12.4 0.00233-1.49 0.00123-2.99-0.00352-4.48-0.00593-2.01 0.00147-4.02 0.00968-6.04 3.59e-4 -1.12 7.19e-4 -2.24 0.00109-3.39 0.435-4.52 2.49-4.86 6.54-4.86z" fill="#10441F"/>
<path transform="translate(967 275)" d="m0 0c8.96 0.00737 17.9 0.00867 26.9 0.0098 16 0.00216 31.9 0.00872 47.9 0.0183 15.5 0.00926 30.9 0.0163 46.4 0.0205 0.962 2.63e-4 1.92 5.25e-4 2.92 7.96e-4 4.83 0.00131 9.66 0.00257 14.5 0.00381 39.7 0.0103 79.4 0.0278 119 0.0503 1.51 3.03 1.14 6.16 1.13 9.48 0.00227 0.78 0.00453 1.56 0.00687 2.36 0.00636 2.63 0.00551 5.26 0.00469 7.89 0.00299 1.88 0.00639 3.76 0.0102 5.64 0.00886 5.13 0.0112 10.3 0.0118 15.4 7.11e-4 3.21 0.00285 6.42 0.0055 9.64 0.00927 11.2 0.0133 22.5 0.0125 33.7-5.97e-4 10.4 0.00988 20.8 0.0257 31.3 0.0132 8.97 0.0184 17.9 0.0178 26.9-2.53e-4 5.35 0.00248 10.7 0.0132 16 0.107 57.2 0.107 57.2-4.99 77.3-0.265 1.08-0.531 2.16-0.804 3.28-11 43.4-40.1 80.8-78.4 104-27.9 16.3-59.4 24.5-91.7 24.5-1.1 0.00175-2.2 0.0035-3.34 0.00531-3.62 0.00438-7.25 0.00149-10.9-0.00189-2.58 6.76e-4 -5.15 0.00165-7.73 0.0029-5.41 0.00147-10.8-5.59e-4 -16.2-0.00534-5.44-0.00475-10.9-0.00489-16.3 0-27.8 0.0243-55.5-0.0396-83.3-0.576-1.59-0.0291-1.59-0.0291-3.21-0.0588-2.96-0.0559-5.92-0.118-8.89-0.184-1.29-0.0245-1.29-0.0245-2.6-0.0495-4.69-0.114-9.19-0.499-13.8-1.26v-1c3.63-0.33 7.26-0.66 11-1v-3c-1.65-0.33-3.3-0.66-5-1v-1h5v-3c1.05-0.29 1.05-0.29 2.12-0.586 0.91-0.26 1.82-0.521 2.76-0.789 1.36-0.383 1.36-0.383 2.74-0.773 2.53-0.712 2.53-0.712 4.38-2.85 2.13-0.625 2.13-0.625 4-1 2.01-9.22 3.33-17.7 3.01-27.2-0.00781-2.79-0.00781-2.79 0.992-5.79 0.134-1.36 0.223-2.72 0.281-4.09 0.0561-1.18 0.0561-1.18 0.113-2.38 0.0348-0.815 0.0696-1.63 0.105-2.47 0.0692-1.61 0.142-3.23 0.219-4.84 0.0303-0.714 0.0606-1.43 0.0918-2.16 0.189-2.06 0.189-2.06 0.668-3.92 5.33-21.8 2.8-47.1 2.76-69.4-0.00892-5.48-0.00702-11-0.00664-16.4-9.31e-4 -9.2-0.00954-18.4-0.0233-27.6-0.0157-10.6-0.021-21.1-0.0203-31.7 6.81e-4 -11.4-0.00629-22.7-0.0154-34.1-0.00211-3.22-0.00284-6.45-0.00324-9.67 3.53-40.2 3.53-40.2-3.17-76.3-0.297-1.54-0.563-3.08-0.812-4.62-0.95-4.9-2.25-8.32-5.19-12.4-2.11-1.04-2.11-1.04-4-1v-4h-6c1.32-0.66 2.64-1.32 4-2v-4c-24.1-0.33-48.2-0.66-73-1v-1c45.4-0.856 90.9-1.14 136-1.1z" fill="#0C2816"/>
<path transform="translate(1161 762)" d="m0 0c6.6-0.0126 13.2-0.0295 19.8-0.0588 6.22-0.0271 12.4-0.0397 18.7-0.0406 2.29-0.00268 4.59-0.0105 6.88-0.0235 3.12-0.0169 6.25-0.0153 9.37-0.00883 0.92-0.00922 1.84-0.0184 2.79-0.0279 2.53 0.0169 2.53 0.0169 6.49 0.384 2.37 3.56 2.26 5.07 2.27 9.29 0.00453 0.641 0.00906 1.28 0.0137 1.94 0.0127 2.15 0.011 4.31 0.00937 6.46 0.00598 1.54 0.0128 3.09 0.0204 4.63 0.0177 4.2 0.0224 8.4 0.0236 12.6 0.00142 2.63 0.00569 5.26 0.011 7.89 0.0185 9.21 0.0267 18.4 0.0251 27.6-0.00119 8.54 0.0198 17.1 0.0515 25.6 0.0263 7.35 0.0369 14.7 0.0356 22.1-5.05e-4 4.38 0.00494 8.76 0.0264 13.1 0.154 33.8-2 63.4-26.7 89-13.7 13.6-30.6 22.1-49.8 24.8-1.07 0.171-2.14 0.341-3.24 0.517-3.62 0.465-7.06 0.606-10.7 0.603-0.663 8.54e-4 -1.33 0.00171-2.01 0.00259-2.2 0.00164-4.41-0.00383-6.61-0.00932-1.59-2.82e-4 -3.17-1.23e-4 -4.76 4.43e-4 -4.29 2.86e-4 -8.59-0.00558-12.9-0.0126-4.49-0.00626-8.99-0.00684-13.5-0.00803-8.5-0.0031-17-0.0113-25.5-0.0213-9.68-0.0112-19.4-0.0167-29-0.0217-19.9-0.0104-39.8-0.028-59.7-0.0503 9.22e-4 1.25 0.00184 2.49 0.00279 3.78 0.0216 29.6 0.0381 59.1 0.0483 88.7 0.00125 3.63 0.00255 7.27 0.00387 10.9 2.62e-4 0.723 5.25e-4 1.45 7.95e-4 2.19 0.00436 11.7 0.0122 23.5 0.0214 35.2 0.00934 12 0.0149 24.1 0.0169 36.1 0.00125 6.76 0.00427 13.5 0.0116 20.3 0.00676 6.35 0.00889 12.7 0.00738 19.1 2.77e-4 2.34 0.00228 4.68 0.0061 7.02 0.00493 3.18 0.0038 6.36 0.00105 9.54 0.00437 1.41 0.00437 1.41 0.00883 2.84-0.015 6.35-0.015 6.35-1.13 7.46-2.37 0.101-4.71 0.14-7.09 0.133-0.725 0.00136-1.45 0.00273-2.2 0.00414-2.36 0.00203-4.73-0.0043-7.09-0.0119-0.798-0.00122-1.6-0.00244-2.42-0.00369-30-0.0542-30-0.0542-41.2-2.12v-1h5v-4c0.66-0.33 1.32-0.66 2-1-0.928-0.681-0.928-0.681-1.88-1.38-5.14-6.35-4.45-15.9-4.78-23.7-0.143-3.94-0.143-3.94-0.848-7.81-0.573-2.41-0.62-4.58-0.622-7.07-0.00315-0.992-0.0063-1.98-0.00955-3.01 0.00202-1.07 0.00405-2.14 0.00613-3.24-9.57e-4 -1.11-0.00191-2.23-0.0029-3.37-6.81e-4 -2.36 0.00117-4.72 0.00534-7.08 0.00529-3.57 8.08e-5 -7.13-0.00635-10.7 6.62e-4 -2.3 0.00195-4.61 0.00391-6.91-0.00202-1.05-0.00405-2.09-0.00613-3.17 0.0173-5.63 0.227-11.2 0.639-16.8 0.569-7.96 0.646-15.9 0.633-23.9 6.76e-4 -1.49 0.00165-2.98 0.0029-4.47 0.00146-3.09-6.19e-4 -6.18-0.00534-9.27-0.00575-3.95-0.00238-7.91 0.00357-11.9 0.00361-3.06 0.00246-6.13-1.28e-4 -9.19-6.64e-4 -1.46 1.41e-4 -2.92 0.00248-4.38 0.00255-2.03-0.00202-4.06-0.0069-6.09-7.96e-4 -1.15-0.00159-2.3-0.00241-3.49-0.116-2.82-0.534-5.33-1.13-8.08-0.105-1.37-0.174-2.73-0.205-4.1-0.0199-0.784-0.0399-1.57-0.0604-2.38-0.0167-0.847-0.0334-1.69-0.0507-2.57-0.0209-0.903-0.0417-1.81-0.0632-2.74-0.0666-2.99-0.125-5.98-0.183-8.97-0.0208-1.03-0.0417-2.05-0.0632-3.11-0.33-16.5-0.48-33-0.499-49.4-0.00259-1.01-0.00518-2.02-0.00784-3.07-0.0229-11.3 0.206-22.5 0.915-33.8 0.252-4.38 0.301-8.72 0.218-13.1-0.0651-6.16 0.172-12.2 0.879-18.3 0.107-2.98-0.0694-5.65-0.365-8.6-0.65-7.54-0.64-15-0.611-22.6 0.00187-1.49 0.00329-2.97 0.00429-4.46 0.00378-3.87 0.0136-7.73 0.0247-11.6 0.0103-3.96 0.0148-7.92 0.0198-11.9 0.0107-7.74 0.0277-15.5 0.0488-23.2h2c-0.0838-0.675-0.168-1.35-0.254-2.05-0.102-0.892-0.204-1.78-0.309-2.7-0.157-1.32-0.157-1.32-0.316-2.67-0.116-2.46 0.143-4.24 0.879-6.58h-2v-6h2v-20h3c0.103-0.681 0.206-1.36 0.312-2.06 0.835-3.57 2.18-6.6 3.69-9.94-0.33-0.33-0.66-0.66-1-1-0.141-2.67-0.0425-5.32 0-8h4c-0.33-0.66-0.66-1.32-1-2h-3v-3h4c0.33-1.32 0.66-2.64 1-4 2.97-0.66 5.94-1.32 9-2v3h13v-9c12.9-0.66 25.7-1.32 39-2v-1c55.3-0.607 111-1.12 166-1.22z" fill="#009249"/>
<path transform="translate(749 275)" d="m0 0c3.1-7.26e-4 6.19-0.00289 9.29-0.0055 10.8-0.00912 21.7-0.0133 32.5-0.0125 10.1 6.09e-4 20.1-0.0101 30.2-0.0257 8.72-0.013 17.4-0.0184 26.2-0.0178 5.17 2.55e-4 10.3-0.00258 15.5-0.0132 4.82-0.00962 9.65-0.0098 14.5-0.00248 1.77 0.00105 3.54-0.00134 5.31-0.00736 2.41-0.00765 4.81-0.00312 7.22 0.00463 1.06-0.00772 1.06-0.00772 2.14-0.0156 4.81 0.0345 4.81 0.0345 7.04 2.26 2.57 0.648 2.57 0.648 5 1v4c-0.66 0.33-1.32 0.66-2 1 1.98 0.495 1.98 0.495 4 1v4c1.15 0.122 1.15 0.122 2.33 0.246 2.67 0.754 2.67 0.754 4.22 2.54 2.76 5.22 4.03 9.33 4.45 15.2 0.33 0.33 0.66 0.66 1 1 1.11 7.72 1.33 15.5 1.55 23.2 0.0209 0.704 0.0418 1.41 0.0634 2.13 0.566 19.5 0.549 39 0.552 58.5 7.22e-4 3.14 0.00288 6.29 0.0055 9.43 0.00917 11 0.0133 22.1 0.0125 33.1-6.02e-4 10.2 0.01 20.4 0.0257 30.6 0.0132 8.84 0.0184 17.7 0.0178 26.5-2.52e-4 5.24 0.00243 10.5 0.0132 15.7 0.103 53.8 0.103 53.8-3.24 66.7-0.129 1.37-0.221 2.74-0.281 4.12-0.0374 0.772-0.0748 1.54-0.113 2.34-0.0522 1.2-0.0522 1.2-0.105 2.42-0.226 5.13-0.645 10.1-1.5 15.1 0.00523 1.63 0.0472 3.25 0.125 4.88 0.0274 4.97-0.465 9.73-1.25 14.6-0.0927 0.695-0.185 1.39-0.281 2.1-0.352 1.99-0.352 1.99-1.59 5.4-2.93 1.86-2.93 1.86-6 3-1.52 0.835-1.52 0.835-3.06 1.69-2.96 1.32-4.75 1.59-7.94 1.31v3c1.65 0.33 3.3 0.66 5 1v1h-5v3c-1.65 0.33-3.3 0.66-5 1 0.33 0.99 0.66 1.98 1 3-14.9 0.0312-29.8 0.0512-44.7 0.0625-1.68 0.00128-1.68 0.00128-3.39 0.00259-35.2 0.0237-70.5-0.154-106-0.565-1.54-0.0179-1.54-0.0179-3.11-0.0362-12.4-0.145-24.7-0.299-37.1-0.464-0.495-1.49-0.495-1.49-1-3-1.65 0.33-3.3 0.66-5 1v-5c1.21-0.433 1.21-0.433 2.44-0.875 2.7-0.858 2.7-0.858 3.56-3.12 3.06-0.625 3.06-0.625 6-1 0.33-0.99 0.66-1.98 1-3h3v-2c1.87-2.6 2.91-2.98 6.12-3.59 0.951-0.135 1.9-0.271 2.88-0.41-0.033-2.1-0.102-4.21-0.188-6.31-0.0522-1.76-0.0522-1.76-0.105-3.55-0.233-1.04-0.467-2.07-0.707-3.14-1.25-0.727-1.25-0.727-2.53-1.47-0.815-0.505-1.63-1.01-2.47-1.53-0.488-3.36-0.488-3.36-0.312-7.19 0.0451-1.27 0.0902-2.54 0.137-3.86 0.087-1.46 0.087-1.46 0.176-2.96h2v-2c0.99-0.33 1.98-0.66 3-1 1.13-2.26 1.13-3.52 1.13-6.03 0.00129-0.792 0.00258-1.58 0.00391-2.4-0.0058-1.24-0.0058-1.24-0.0117-2.51 0.00387-0.824 0.00773-1.65 0.0117-2.5-0.00193-1.19-0.00193-1.19-0.00391-2.4-0.00169-1.09-0.00169-1.09-0.00342-2.2-0.0605-2.18-0.0605-2.18-1.13-4.96-0.0674-1.56-0.0851-3.13-0.0625-4.69 0.00902-0.808 0.018-1.62 0.0273-2.45 0.0116-0.615 0.0232-1.23 0.0352-1.86h-2v-12h2c0.829-12.5 1.29-25 1.55-37.5 0.0314-1.46 0.0314-1.46 0.0634-2.94 0.511-24.3 0.535-48.5 0.512-72.8-0.00583-6.25-0.00231-12.5 0.00357-18.8 0.0036-4.88 0.00247-9.75-1.28e-4 -14.6-6.64e-4 -2.31 1.41e-4 -4.62 0.00248-6.93 0.00253-3.19-0.00132-6.37-0.0069-9.56 0.00202-0.938 0.00405-1.88 0.00613-2.84-0.0136-4.18-0.154-8.01-1.14-12.1-0.135-2.49-0.224-4.98-0.281-7.47-0.0184-0.717-0.0368-1.43-0.0558-2.17-0.0584-2.29-0.111-4.57-0.163-6.86 1.08-16.9 1.08-16.9-2.5-31.5-0.0408-2-0.0425-4 0-6h-2v-2c0.639-0.495 1.28-0.99 1.94-1.5 3.11-3.76 2.88-7.75 3.06-12.5h-2v-2c-2.64-0.33-5.28-0.66-8-1v-3l-2-1h2v-4l-2-1c3-2 3-2 6-2v-3c-24.8-0.495-24.8-0.495-50-1v-1c29.7-0.759 59.4-1.16 89.2-1.17z" fill="#0F3218"/>
<path transform="translate(532,275)" d="m0 0 2 4h-10v2c-1.32 0.33-2.64 0.66-4 1 0.495 1.49 0.495 1.49 1 3 0.99 0.495 0.99 0.495 2 1-0.99 0.33-1.98 0.66-3 1 0.495 1.49 0.495 1.49 1 3 1.32 0.66 2.64 1.32 4 2-0.66 3.3-1.32 6.6-2 10-1.65 0.33-3.3 0.66-5 1 0.14 1.48 0.288 2.96 0.438 4.44 0.122 1.24 0.122 1.24 0.246 2.5 0.106 2.05 0.106 2.05 1.32 3.07v7c0.153 0.592 0.306 1.18 0.464 1.79 2.72 11.2 1.63 24 1.45 35.5-0.0438 2.97-0.0797 5.94-0.114 8.9-0.0512 4.42-0.105 8.84-0.16 13.3-0.156 12.7-0.278 25.4-0.39 38.1-0.00611 0.69-0.0122 1.38-0.0185 2.09-0.328 37.4-0.318 74.7-0.289 112 0.00213 2.76 0.00415 5.51 0.00616 8.27 0.0149 20.2 0.0355 40.4 0.0591 60.5 0.0288 24.6 0.0467 49.3 0.0611 73.9 0.00311 5.3 0.00633 10.6 0.00954 15.9 6.4e-4 1.06 0.00128 2.11 0.00194 3.2 0.0013 2.14 0.0026 4.27 0.00389 6.41 0.0013 2.14 0.0026 4.29 0.0039 6.43 0.0151 25 0.0323 50 0.0509 75 8.06e-4 1.09 0.00161 2.18 0.00244 3.3 0.0264 35.6 0.0632 71.1 0.104 107 0.0421 36.8 0.0709 73.6 0.0839 110 0.00185 5.19 0.00387 10.4 6e-3 15.6 4.16e-4 1.02 8.32e-4 2.04 0.00126 3.09 0.00711 16.4 0.0285 32.8 0.0555 49.2 0.0268 16.4 0.0394 32.8 0.0371 49.2-8.69e-4 9.73 0.00951 19.5 0.0358 29.2 0.0165 6.49 0.0185 13 0.00868 19.5-0.00518 3.7-0.00398 7.4 0.0149 11.1 0.0201 3.98 0.00938 7.96-0.00446 11.9 0.0108 1.15 0.0216 2.3 0.0327 3.48-0.056 6.82-1.07 11-4.52 16.9-0.67 3.11-0.67 3.11-0.75 6-0.0851 1.42-0.0851 1.42-0.172 2.88-0.0258 0.701-0.0516 1.4-0.0781 2.12h2v2h3c0.495 1.49 0.495 1.49 1 3 0.66 0.66 1.32 1.32 2 2-0.66 0.99-1.32 1.98-2 3-3.62 0.188-3.62 0.188-7 0v2h-6c-1.46 2.65-2 3.89-2 7-0.306 1.34-0.635 2.68-1 4 4.57 2.25 8.82 2.42 13.8 2.62 0.788 0.0387 1.58 0.0773 2.39 0.117 1.93 0.0937 3.87 0.177 5.8 0.258 0.33 0.66 0.66 1.32 1 2-26.2 0.95-52.3 1.09-78.5 1.06-0.827-8.56e-4 -1.65-0.00171-2.51-0.00259-10.3-0.0115-20.7-0.0317-31-0.0599v-1c15.8-0.33 31.7-0.66 48-1-3.96-0.33-7.92-0.66-12-1-0.66-0.33-1.32-0.66-2-1-1.33-0.352-2.66-0.688-4-1 3.23-2.15 4.28-2.2 8-2-2.64-0.66-5.28-1.32-8-2 0.94-0.818 0.94-0.818 1.9-1.65 2.39-2.67 2.95-4.45 3.73-7.91 0.801-3.47 1.37-5.43 3.38-8.44h2c-0.246-0.812-0.246-0.812-0.496-1.64-0.59-2.76-0.6-5.29-0.566-8.11 0.00902-0.985 0.018-1.97 0.0273-2.98 0.0116-0.748 0.0232-1.5 0.0352-2.27 0.99-0.33 1.98-0.66 3-1v-2c1.18-0.897 1.18-0.897 2.38-1.81 4.22-3.52 4.86-7.73 5.75-13 0.168-0.976 0.335-1.95 0.508-2.96 0.182-1.1 0.182-1.1 0.367-2.23h-3c-2.21-7.33-4.25-14.4-5-22-0.33-0.33-0.66-0.66-1-1-3.02-11.1-2.27-22.9-2.23-34.3 0.00119-2.16 0.00164-4.32 0.00139-6.48 0.00156-4.51 0.00979-9.02 0.0233-13.5 0.017-5.77 0.0208-11.5 0.0201-17.3 2.72e-4 -4.45 0.00576-8.91 0.013-13.4 0.00317-2.13 0.00515-4.25 0.00589-6.38 0.00218-2.97 0.011-5.94 0.0216-8.91-4.53e-4 -0.869-9.06e-4 -1.74-0.00137-2.63 0.0201-3.85 0.156-7.59 0.663-11.4 0.373-2.83 0.564-5.22 0.367-8.04-0.0478-0.8-0.0956-1.6-0.145-2.42-0.0555-0.873-0.111-1.75-0.168-2.65-0.86-16.3-0.722-32.6-0.701-48.9 0.00575-4.57 0.00237-9.14-0.00357-13.7-0.00363-3.56-0.00246-7.13 1.28e-4 -10.7 6.61e-4 -1.69-1.29e-4 -3.37-0.00248-5.06-0.00835-7.65 0.033-15.2 0.97-22.8 0.169-2.42 0.00189-4.55-0.299-6.95-0.613-5.65-0.674-11.2-0.662-16.9-0.00156-1.11-0.00312-2.23-0.00473-3.38-0.00397-3.71-8.36e-4 -7.42 0.00232-11.1-0.00136-2.67-0.0031-5.34-0.00531-8.01-0.00443-6.49-0.00349-13-5.87e-4 -19.5 0.00226-5.28 0.00256-10.6 0.00148-15.8-1.53e-4 -0.753-3.06e-4 -1.51-4.64e-4 -2.28-3.2e-4 -1.53-6.44e-4 -3.06-9.73e-4 -4.59-0.00285-14.3 4.22e-4 -28.6 0.0058-43 0.00446-12.3 0.00369-24.5-9.19e-4 -36.8-0.00536-14.3-0.00745-28.5-0.00439-42.8 3.19e-4 -1.52 6.33e-4 -3.05 9.43e-4 -4.57 2.31e-4 -1.12 2.31e-4 -1.12 4.68e-4 -2.27 8.6e-4 -5.26-5.88e-4 -10.5-0.00295-15.8-0.00282-6.42-0.00202-12.8 0.00328-19.3 0.00261-3.27 0.00314-6.54 3.51e-4 -9.82-0.00275-3.56 7.17e-4 -7.12 0.00568-10.7-0.00223-1.02-0.00446-2.04-0.00676-3.08 0.0171-6.35 0.379-12.6 0.961-18.9 0.229-3.78-0.262-7.1-0.828-10.8-0.143-3.11-0.137-6.22-0.129-9.34-0.00175-0.897-0.0035-1.79-0.00531-2.72-0.00437-2.94-0.0015-5.88 0.00189-8.82-6.74e-4 -2.05-0.00164-4.1-0.0029-6.15-0.00147-4.28 6.57e-4 -8.56 0.00534-12.8 0.00572-5.5 0.0024-11-0.00357-16.5-0.0036-4.22-0.00247-8.45 1.28e-4 -12.7 6.69e-4 -2.03-1.57e-4 -4.06-0.00248-6.08-0.00252-2.82 0.00131-5.64 0.0069-8.47-0.00202-0.844-0.00405-1.69-0.00613-2.56 0.0213-5.76 0.0213-5.76 1.14-6.87-0.142-1.01-0.284-2.02-0.43-3.06-0.953-6.92-0.7-13.9-0.683-20.9 2.82e-4 -1.62 1.23e-4 -3.23-4.43e-4 -4.85-2.86e-4 -4.37 0.00558-8.74 0.0126-13.1 0.00627-4.58 0.00684-9.15 0.00803-13.7 0.0031-8.66 0.0113-17.3 0.0213-26 0.0112-9.86 0.0167-19.7 0.0217-29.6 0.0104-20.3 0.028-40.5 0.0503-60.8h2c0.735-5.05 1.04-9.85 0.969-14.9 0.0371-2.44 0.422-4.69 1.03-7.05h2c-0.33-0.66-0.66-1.32-1-2-0.99-0.33-1.98-0.66-3-1v-3h-2c-4.31-11.2-4.14-22.1-4-34h-2c-0.674-1.43-1.34-2.87-2-4.31-0.371-0.801-0.742-1.6-1.12-2.43-0.875-2.26-0.875-2.26-0.875-5.26-0.66-0.33-1.32-0.66-2-1 0.66-0.33 1.32-0.66 2-1v-3c-0.66-0.33-1.32-0.66-2-1 0.99-0.33 1.98-0.66 3-1 0.33-1.32 0.66-2.64 1-4-3.3-0.33-6.6-0.66-10-1v-1c30.7-0.665 61.3-1.18 92-1z" fill="#113E1B"/>
<path transform="translate(1098 275)" d="m0 0c4.47 0.00636 8.94 0.00685 13.4 0.00803 8.42 0.00308 16.8 0.0112 25.3 0.0213 9.61 0.0113 19.2 0.0167 28.8 0.0217 19.7 0.0104 39.4 0.0279 59.2 0.0503 1.51 3.03 1.14 6.16 1.13 9.48 0.00227 0.78 0.00453 1.56 0.00687 2.36 0.00636 2.63 0.00551 5.26 0.00469 7.89 0.00299 1.88 0.00639 3.76 0.0102 5.64 0.00886 5.13 0.0112 10.3 0.0118 15.4 7.11e-4 3.21 0.00285 6.42 0.0055 9.64 0.00927 11.2 0.0133 22.5 0.0125 33.7-5.97e-4 10.4 0.00988 20.8 0.0257 31.3 0.0132 8.97 0.0184 17.9 0.0178 26.9-2.53e-4 5.35 0.00248 10.7 0.0132 16 0.107 57.2 0.107 57.2-4.99 77.3-0.265 1.08-0.531 2.16-0.804 3.28-11 43.4-40.1 80.8-78.4 104-29 16.9-62.5 26.1-96.1 23.3v-2c0.742 0.0157 1.48 0.0314 2.25 0.0476 3.35 0.0623 6.71 0.101 10.1 0.14 1.17 0.0251 2.33 0.0503 3.54 0.0762 1.12 0.00967 2.24 0.0193 3.39 0.0293 1.03 0.0157 2.06 0.0314 3.13 0.0476 2.69-0.112 2.69-0.112 4.5-1.86 0.376-0.489 0.752-0.978 1.14-1.48-0.33-0.33-0.66-0.66-1-1v-3h3v-2c2.97-0.66 5.94-1.32 9-2-0.66-0.33-1.32-0.66-2-1v-6h6c0.33-1.65 0.66-3.3 1-5h2v-9c1.32 1.65 2.64 3.3 4 5v-8c-1.65-0.66-3.3-1.32-5-2v2c-1.65-0.66-3.3-1.32-5-2v6h-2c-1.32-2.64-2.64-5.28-4-8 1.98-0.33 3.96-0.66 6-1v-2h-2c-2.29-8.43-2.29-8.43-2-13h-2c-6.35-10.7-2.92-29.7-2.65-41.6 0.152-6.87 0.276-13.7 0.39-20.6 0.0123-0.738 0.0246-1.48 0.0372-2.24 0.318-19.6 0.303-39.3 0.283-58.9-0.00157-1.83-0.00311-3.67-0.00464-5.5-0.0108-12.1-0.0305-24.2-0.0527-36.3-0.0243-13.3-0.047-26.6-0.0586-39.9-0.00494-5.3-0.0147-10.6-0.0284-15.9-0.00745-3.26-0.0108-6.51-0.013-9.77-0.00187-1.5-0.00546-3.01-0.0109-4.51-0.00723-2.05-0.00825-4.11-0.00778-6.16-0.00222-1.15-0.00444-2.29-0.00673-3.47 0.119-3.14 0.532-6.09 1.12-9.17h2v-3h-2v-2h2v-3h-2v-2h2v-8h2c-0.267-1.98-0.267-1.98-1-4-0.99-0.33-1.98-0.66-3-1 0.0206 1.09 0.0412 2.19 0.0625 3.31-0.0625 3.69-0.0625 3.69-1.06 6.69h-2v2h-2v-6c0.66-0.33 1.32-0.66 2-1 0.506-2.32 0.506-2.32 0.688-5 0.0864-0.908 0.173-1.81 0.262-2.75 0.0168-0.743 0.0335-1.49 0.0508-2.25-0.33-0.33-0.66-0.66-1-1-0.0408-2-0.0425-4 0-6h-2v-2h-2v-6c-1.32-0.33-2.64-0.66-4-1 3.69-1.23 6.21-0.644 10 0 0.495 2.48 0.495 2.48 1 5h4c0.66-1.32 1.32-2.64 2-4h5v-1c-5.44-0.495-5.44-0.495-11-1v-3h16v-2h-29v-3h-29v-1c20.5-1.03 40.9-1.14 61.3-1.1z" fill="#0B2515"/>
<path transform="translate(254 276)" d="m0 0c1.22 0.0566 1.22 0.0566 2.47 0.114 0.921 0.0401 1.84 0.0802 2.79 0.122 1 0.0489 2 0.0978 3.03 0.148 1.02 0.0458 2.04 0.0916 3.09 0.139 3.27 0.148 6.54 0.303 9.81 0.459 2.21 0.101 4.42 0.202 6.63 0.303 5.43 0.248 10.9 0.502 16.3 0.76v2c-0.99 0.33-1.98 0.66-3 1 0.495 1.49 0.495 1.49 1 3 2.1 1.02 2.1 1.02 4.56 1.69 0.826 0.251 1.65 0.503 2.5 0.762 0.638 0.182 1.28 0.364 1.93 0.551v5c1.32 0.33 2.64 0.66 4 1-0.33 1.98-0.66 3.96-1 6h-7v2c-0.99 0.495-0.99 0.495-2 1-0.847 2.56-1.47 5.14-2.12 7.75-0.29 0.743-0.58 1.49-0.879 2.25-0.99 0.33-1.98 0.66-3 1 0.153 0.94 0.307 1.88 0.465 2.85 0.692 4.85 0.883 9.7 1.1 14.6 0.0432 0.922 0.0864 1.84 0.131 2.79 0.105 2.26 0.207 4.51 0.307 6.77 0.99 0.495 0.99 0.495 2 1v2h2c1.27 2.54 1.13 4.3 1.13 7.14 0.0025 1.1 0.00501 2.2 0.00759 3.33-0.00234 1.22-0.00468 2.44-0.00709 3.69 0.00145 1.29 0.00291 2.58 0.0044 3.91 0.00392 3.61 0.00155 7.22-0.00178 10.8-0.00252 3.92 7.18e-4 7.84 0.00324 11.8 0.00362 6.88 0.0035 13.8 9.53e-4 20.6-0.00377 10.2-0.00186 20.5 0.00121 30.7 0.00528 18.3 0.0048 36.5 0.00192 54.8-0.00251 16-0.00317 32-0.00198 48 7.64e-5 1.06 1.53e-4 2.12 2.31e-4 3.21 3.11e-4 4.3 6.3e-4 8.6 9.6e-4 12.9 0.00306 40.4 2.81e-4 80.7-0.0051 121-0.00474 35.9-0.00432 71.7 4.61e-4 108 0.00535 40.3 0.00748 80.5 0.00439 121-3.21e-4 4.29-6.34e-4 8.59-9.43e-4 12.9-7.91e-5 1.06-1.58e-4 2.11-2.4e-4 3.2-0.00114 16 1.94e-4 31.9 0.00272 47.9 0.00286 18.2 0.00215 36.3-0.00328 54.5-0.00294 10.2-0.00312 20.3 6.46e-4 30.5 0.00224 6.79 8.5e-4 13.6-0.0035 20.4-0.00238 3.87-0.00319 7.74 4.06e-4 11.6 0.00383 4.17-6.75e-5 8.34-0.00472 12.5 0.00234 1.2 0.00468 2.4 0.00709 3.64-0.0132 5.89-0.223 11.7-0.899 17.5-0.297 2.58-0.431 5.16-0.531 7.75-0.04 1-0.0799 2-0.121 3.03-0.0579 1.56-0.0579 1.56-0.117 3.16-0.043 1.1-0.086 2.19-0.13 3.32-0.135 3.46-0.266 6.93-0.397 10.4-0.0915 2.36-0.183 4.73-0.275 7.09-0.224 5.76-0.444 11.5-0.662 17.3h-2l-0.184 2.38c-0.173 2.17-0.357 4.33-0.551 6.5-0.151 1.78-0.281 3.55-0.344 5.34-0.109 1.79-0.109 1.79-0.922 4.79-1.96 1.4-3.95 2.74-6 4 0 2.4 0.0155 4.79 0.0625 7.19-0.0625 2.81-0.0625 2.81-1.06 3.81-0.235 2.18-0.414 4.37-0.563 6.56-0.0838 1.2-0.168 2.4-0.254 3.63-0.0606 0.927-0.121 1.85-0.184 2.81 0.99 0.33 1.98 0.66 3 1 0.66-1.32 1.32-2.64 2-4 0.495 4.45 0.495 4.45 1 9h-3c0.784 0.268 1.57 0.536 2.38 0.812 2.62 1.19 2.62 1.19 4.62 4.19h-6c0.66 0.33 1.32 0.66 2 1v3c0.949 0.309 1.9 0.619 2.88 0.938 3.12 1.06 3.12 1.06 5.12 2.06 0.625 3.06 0.625 3.06 1 6-4.75-0.51-8.02-2.73-11.8-5.44-0.896-0.612-0.896-0.612-1.81-1.24-1.5-1.05-2.94-2.18-4.38-3.33v-2c-0.557-0.248-1.11-0.495-1.69-0.75-2.76-1.49-5-3.12-7.31-5.25-0.352-1.33-0.688-2.66-1-4-0.884-0.377-0.884-0.377-1.79-0.762-9.08-5.07-14.3-22.5-17-31.9-2.22-8.72-2.65-17-2.6-25.9-0.00253-1.55-0.00637-3.1-0.0114-4.64-0.00998-4.24-0.00139-8.48 0.0103-12.7 0.00944-4.62 0.0014-9.23-0.0044-13.8-0.00775-8.08-0.00438-16.2 0.00632-24.3 0.0159-12 0.0145-24 0.00971-36.1-0.00759-20.2-0.00108-40.4 0.0136-60.7 0.0145-20 0.0233-40 0.0242-60.1 9.16e-5 -1.87 9.16e-5 -1.87 1.85e-4 -3.77 2.3e-4 -5.05 4.17e-4 -10.1 5.48e-4 -15.2 0.00121-46.1 0.0169-92.1 0.0416-138 0.0233-43.5 0.0375-87 0.041-131 1.12e-4 -1.35 2.25e-4 -2.71 3.38e-4 -4.06 3.93e-4 -4.73 7.81e-4 -9.46 0.00117-14.2 3.3e-4 -4.04 6.62e-4 -8.08 9.96e-4 -12.1 1.65e-4 -2.02 3.28e-4 -4.03 4.9e-4 -6.05 0.00348-42.7 0.015-85.5 0.0278-128 0.00372-12.5 0.00699-25 0.00925-37.6 0.0048-26.3 0.0119-52.7 0.0281-79 0.00667-10.9 0.0118-21.8 0.0125-32.7 5.5e-4 -9.03 0.00436-18.1 0.0128-27.1 0.00414-4.55 0.00667-9.1 0.00488-13.7-0.00158-4.13 0.00135-8.26 0.00806-12.4 0.00161-1.49 0.0015-2.99-4.27e-4 -4.48-0.00236-2.01 0.00193-4.02 0.00664-6.03 5.15e-4 -1.12 0.00103-2.24 0.00156-3.39 0.176-3.46 0.176-3.46 2.99-3.53z" fill="#12461F"/>
<path transform="translate(768 762)" d="m0 0c1.47 2.83e-4 2.94 1.22e-4 4.41-4.43e-4 3.95-2.84e-4 7.89 0.00555 11.8 0.0126 4.14 0.0063 8.28 0.00684 12.4 0.00803 7.82 0.00309 15.6 0.0113 23.5 0.0213 8.91 0.0112 17.8 0.0167 26.7 0.0217 18.3 0.0104 36.6 0.028 55 0.0503-0.33 0.99-0.66 1.98-1 3-1.25 0.0376-1.25 0.0376-2.52 0.0759-3.13 0.0959-6.25 0.195-9.38 0.296-2 0.0639-4 0.124-6 0.184-11.2-0.557-11.2-0.557-21.1 2.44-2.86 0.237-5.7 0.422-8.56 0.562-0.806 0.0432-1.61 0.0864-2.44 0.131-2 0.106-4 0.207-5.99 0.307v3c-4 1.33-8 2.67-12 4-0.0412 1.28-0.0825 2.56-0.125 3.88-0.0232 0.719-0.0464 1.44-0.0703 2.18 0.012 2.18 0.012 2.18 2.2 3.95 0.691 5.17-0.0397 9.22-2 14 0 1.98 0.0024 3.95 0.0625 5.93-0.0979 3.24-1.04 6-2.06 9.07h-2c-0.0496 4.87-0.0858 9.75-0.11 14.6-0.01 1.66-0.0237 3.31-0.041 4.97-0.0244 2.39-0.0356 4.78-0.0444 7.16-0.0103 0.735-0.0206 1.47-0.0313 2.23-9.53e-4 4.42 0.68 7.9 2.23 12 0.28 3.36 0.152 5.59-1.01 8.76-1.09 3.55-1.19 6.41-1.12 10.1 0.018 1.15 0.0361 2.3 0.0547 3.49 0.0232 0.869 0.0464 1.74 0.0703 2.63h2c0.84 4.54 1.15 8 0.0625 12.5-1.28 6.03-1.52 12-1.69 18.1-0.0358 1.17-0.0715 2.35-0.108 3.56-0.102 3.6-0.186 7.21-0.267 10.8-0.0287 1.08-0.0574 2.17-0.0869 3.28-0.284 11.6-0.0816 22.6 2.2 34 0.37 1.89 0.641 3.8 0.892 5.71-0.66 0.66-1.32 1.32-2 2-0.0598 2.61-0.0598 2.61 0.312 5.5 0.0993 0.98 0.199 1.96 0.301 2.97 0.252 2.52 0.252 2.52 1.39 4.53 0.12 1.5 0.175 3 0.188 4.5 0.0142 0.794 0.0284 1.59 0.043 2.41-0.23 2.09-0.23 2.09-2.23 4.09-0.879 6.04 0.107 11.4 2.34 17 0.656 2.01 0.656 2.01 0.656 6.01h-2c-1.38 5.7-1.38 10.8 0.125 16.4 0.918 3.83 0.658 6.36-0.543 10.2-1.3 5.33-1.29 10.9-1.58 16.4h2v2c-0.66 0.33-1.32 0.66-2 1-2.13 7.39-1.49 16.1-0.438 23.7 0.598 4.37 0.148 8.47-0.406 12.8-0.155 2.47 0.183 4.12 0.844 6.48 0.0389 2.33 0.0449 4.67 0 7h2c0.254 7.38 0.254 7.38-1 10.4-1.4 4.99-1.25 9.71-1.2 14.9 0.00424 1.62 0.00424 1.62 0.00858 3.27 0.0112 3.43 0.0363 6.87 0.0617 10.3 0.01 2.33 0.0192 4.67 0.0273 7 0.022 5.71 0.0554 11.4 0.0977 17.1 0.66 0.33 1.32 0.66 2 1-0.66 2.31-1.32 4.62-2 7h2c3.18 6.37 1.12 15.5-1 22-0.335 3.21-0.335 3.21 0 6 0.66 0.66 1.32 1.32 2 2 0.195 2.38 0.195 2.38 0.125 5.12-0.018 0.91-0.0361 1.82-0.0547 2.76-0.0232 0.699-0.0464 1.4-0.0703 2.12-0.699 0.121-1.4 0.242-2.12 0.367-0.91 0.168-1.82 0.335-2.76 0.508-0.905 0.162-1.81 0.325-2.74 0.492-2.55 0.463-2.55 0.463-4.38 2.63-0.584 2.87-0.584 2.87 0 6 2.4 2.65 2.4 2.65 5 5 1.27 2.99 0.984 4.94 0 8h6v2c0.99-0.33 1.98-0.66 3-1 0.99 0.66 1.98 1.32 3 2-3.48 0.0588-6.96 0.0939-10.4 0.125-0.974 0.0168-1.95 0.0335-2.95 0.0508-6.17 0.0413-11.7-0.553-17.6-2.18-1.05-0.26-2.11-0.521-3.2-0.789-21.2-6.06-41.4-20.1-52.8-39.2-7.24-13.6-12.1-27.6-12.1-43.2-0.00175-0.696-0.00351-1.39-0.00531-2.11-0.00464-2.33-0.0022-4.65 2.34e-4 -6.98-0.00187-1.69-0.00417-3.38-0.00687-5.06-0.00611-4.63-0.00598-9.26-0.00481-13.9 2.04e-4 -5-0.00532-9.99-0.0101-15-0.0083-9.79-0.0111-19.6-0.0116-29.4-4.75e-4 -7.95-0.00253-15.9-0.0057-23.8-0.0088-22.5-0.0134-45.1-0.0127-67.6 4e-5 -1.21 7.99e-5 -2.43 1.21e-4 -3.68 4.09e-5 -1.22 8.18e-5 -2.43 1.24e-4 -3.68 4.07e-4 -19.7-0.00918-39.5-0.0233-59.2-0.0143-20.2-0.0213-40.5-0.0204-60.7 3.33e-4 -11.4-0.00244-22.7-0.0132-34.1-0.00907-9.67-0.0113-19.3-0.00449-29 0.00328-4.94 0.00327-9.88-0.00535-14.8-0.0078-4.52-0.0065-9.03 0.00228-13.5 0.00155-1.64-3.33e-4 -3.28-0.00586-4.92-0.00698-2.22-0.00183-4.43 0.00656-6.65-2.17e-4 -1.23-4.35e-4 -2.47-6.59e-4 -3.74 0.25-2.86 0.25-2.86 2.25-4.86 9.23-1.51 18.8-1.14 28.2-1.11z" fill="#008944"/>
<path transform="translate(576 299)" d="m0 0c0.928 0.206 1.86 0.413 2.81 0.625v5c0.636 0.174 1.27 0.348 1.93 0.527 2.07 1.47 2.07 1.47 2.87 4.91 0.15 1.37 0.281 2.75 0.395 4.12 0.0567 4.59 0.0567 4.59 1.81 8.44 0.0486 1.39 0.0364 2.79 0 4.19-0.0496 3.95 0.169 7.76 0.562 11.7 0.683 8.62 0.221 17.2-0.156 25.8-0.286 6.55-0.426 13.1-0.391 19.6-0.0276 4.64-0.482 9.21-0.895 13.8-0.349 2.79-0.349 2.79 0.879 4.84 0.0166 2.77-0.0273 5.52-0.121 8.29-0.0236 0.818-0.0472 1.64-0.0715 2.48-0.0767 2.62-0.161 5.24-0.245 7.86-0.0532 1.77-0.106 3.55-0.158 5.32-0.129 4.35-0.265 8.7-0.404 13.1h2c0.0821 4.19-0.158 7.91-1 12 0.33 0.33 0.66 0.66 1 1 0.497 10.5-0.262 21-1 31.4-0.0968 1.43-0.193 2.85-0.289 4.28-0.232 3.43-0.47 6.86-0.711 10.3h2c0.0268 2.65 0.0468 5.29 0.0625 7.94 0.00838 0.755 0.0168 1.51 0.0254 2.29 0.00863 1.93-0.0356 3.85-0.0879 5.78-0.33 0.33-0.66 0.66-1 1-0.237 2.69-0.422 5.36-0.562 8.06-0.0648 1.14-0.0648 1.14-0.131 2.3-0.106 1.88-0.207 3.76-0.307 5.64h2c0.173 12.8 0.173 12.8-0.562 17.1-0.67 2.94-0.67 2.94 0.562 5.88 0.0694 2.23 0.0846 4.46 0.0625 6.69-0.00902 1.18-0.018 2.36-0.0273 3.57-0.0116 0.904-0.0232 1.81-0.0352 2.74-0.66 0.33-1.32 0.66-2 1-0.0289 3.31-0.0468 6.62-0.0625 9.94-0.0126 1.42-0.0126 1.42-0.0254 2.87-0.00322 0.899-0.00645 1.8-0.00977 2.72-0.00524 0.833-0.0105 1.67-0.0159 2.52-0.103 1.95-0.103 1.95 1.11 2.95 0.235 7.29 0.235 7.29-1 11-0.314 4.66-0.324 9.33-0.375 14-0.0561 1.95-0.0561 1.95-0.113 3.93-0.0116 1.24-0.0232 2.48-0.0352 3.76-0.0198 1.14-0.0396 2.28-0.0601 3.45 0.306 3.04 0.306 3.04 2.88 4.75 3.37 1.39 6.1 1.33 9.71 1.12-0.66 1.65-1.32 3.3-2 5h2v2c0.99 0.33 1.98 0.66 3 1v3c0.66 0.33 1.32 0.66 2 1h-2v4c0.66 0.33 1.32 0.66 2 1h-2c-0.33 0.66-0.66 1.32-1 2-0.103-0.639-0.206-1.28-0.312-1.94-0.227-0.681-0.454-1.36-0.688-2.06-0.99-0.33-1.98-0.66-3-1v2c0.66 0.33 1.32 0.66 2 1h-2c-0.33 0.66-0.66 1.32-1 2-0.99-1.98-0.99-1.98-2-4-0.66 2.31-1.32 4.62-2 7h-2c0.0206 1.28 0.0412 2.56 0.0625 3.88 0.0625 3.88 0.0625 3.88-1.06 6.12-0.391 2.54-0.745 5.07-1.06 7.62-0.0909 0.706-0.182 1.41-0.275 2.14-0.224 1.74-0.443 3.49-0.662 5.23h-2c-0.144 0.598-0.289 1.2-0.438 1.81-0.45 1.75-0.991 3.47-1.56 5.19h-2v5h3c1.48 2.96 1.06 5.74 1 9h2c2.15 16.7 2.15 16.7 0 21h-2c0.00524 0.645 0.0105 1.29 0.0159 1.96 0.0208 2.93 0.0338 5.86 0.0466 8.79 0.00838 1.02 0.0168 2.03 0.0254 3.08 0.00322 0.98 0.00645 1.96 0.00977 2.97 0.00524 0.901 0.0105 1.8 0.0159 2.73-0.106 2.31-0.462 4.26-1.11 6.47 1.32 0.33 2.64 0.66 4 1v8c-0.99 0.33-1.98 0.66-3 1 0.139 3.73 0.288 7.46 0.438 11.2 0.0393 1.06 0.0786 2.11 0.119 3.2 0.0419 1.02 0.0838 2.04 0.127 3.1 0.055 1.41 0.055 1.41 0.111 2.84 0.202 2.63 0.678 5.1 1.21 7.68-0.156 2.39-0.156 2.39-0.5 4.69-0.571 3.27-0.571 3.27 0.5 6.31h-2c0.66 1.65 1.32 3.3 2 5h-2c0.00222 1.03 0.00444 2.06 0.00673 3.12 0.0203 9.71 0.0353 19.4 0.0451 29.1 0.00522 4.99 0.0123 9.99 0.0236 15 0.0109 4.82 0.0168 9.64 0.0194 14.5 0.00185 1.84 0.00546 3.68 0.0109 5.52 0.00725 2.57 0.00826 5.15 0.0078 7.72 0.0036 0.762 0.00719 1.52 0.0109 2.31-0.0141 7.22-0.0141 7.22-1.12 9.76-0.99 0.33-1.98 0.66-3 1v7h3c0.33 2.31 0.66 4.62 1 7h2v18h-2c-0.33 8.58-0.66 17.2-1 26 1.32 0.33 2.64 0.66 4 1v2h-3v2c0.99 0.33 1.98 0.66 3 1v2h-3v28h2c-0.99 2.47-0.99 2.47-2 5h2c-0.186 0.949-0.371 1.9-0.562 2.88-0.724 3.02-0.724 3.02 0.562 5.12h-2c0.99 2.47 0.99 2.47 2 5h-2v27c0.66 0.33 1.32 0.66 2 1h-2v4c0.66 0.33 1.32 0.66 2 1h-2c0.00222 0.603 0.00444 1.21 0.00673 1.83 0.0221 6.28 0.0372 12.6 0.0482 18.8 0.00503 2.34 0.0118 4.68 0.0205 7.03 0.0121 3.37 0.0178 6.74 0.0222 10.1 0.00516 1.05 0.0103 2.09 0.0156 3.17 7.55e-5 0.981 1.51e-4 1.96 2.29e-4 2.97 0.00222 0.859 0.00444 1.72 0.00673 2.6-0.126 2.57-0.554 4.95-1.12 7.46h-4c0.33 1.65 0.66 3.3 1 5 1.32 0.33 2.64 0.66 4 1v9h2v13h-2v3h2v2h-2v83h-2c0.0928 1.36 0.0928 1.36 0.188 2.75-0.205 3.55-0.655 4.81-3.19 7.25h-3c0.165 1.11 0.33 2.23 0.5 3.38 0.5 3.62 0.5 3.62 0.5 5.62-2.08 0.169-4.17 0.335-6.25 0.5-1.16 0.0928-2.32 0.186-3.52 0.281-2.41 0.163-4.82 0.219-7.23 0.219v-2c-0.699 0.0232-1.4 0.0464-2.12 0.0703-1.37 0.0271-1.37 0.0271-2.76 0.0547-0.905 0.0232-1.81 0.0464-2.74 0.0703-2.38-0.195-2.38-0.195-4.38-2.2-0.348-2.69-0.442-5.36-0.559-8.08-0.294-3.03-0.294-3.03-1.97-5.82-1.78-3.74-1.74-6.29-1.6-10.4 0.124-5.7-0.0835-11-0.875-16.7h-2v-2h2v-3h-2v-2h3c0.0743-3.34 0.0655-5.8-1-9h-2v-3h2v-2h-2v-3h2c0.897-5.38 1.11-10.7 1.12-16.1 0.00677-1.02 0.00677-1.02 0.0137-2.06-0.0118-4.03-0.195-7.88-1.14-11.8-0.66-0.33-1.32-0.66-2-1h2v-4c-0.66-0.33-1.32-0.66-2-1h2c1.27-9.4 1.62-18.6 0-28-0.317-5.44 0.0472-10.8 0.502-16.3 0.611-8.36 0.625-16.7 0.596-25.1-0.00187-1.62-0.00329-3.23-0.00429-4.85-0.00377-4.21-0.0136-8.41-0.0247-12.6-0.0103-4.31-0.0148-8.62-0.0198-12.9-0.0106-8.42-0.0277-16.8-0.0488-25.3-0.99-0.33-1.98-0.66-3-1h2v-4c-0.66-0.33-1.32-0.66-2-1h2c0.146-5.21 0.288-10.4 0.427-15.6 0.0476-1.76 0.0961-3.52 0.146-5.29 0.266-9.5 0.48-19 0.521-28.5 0.00649-0.776 0.013-1.55 0.0197-2.35 0.00346-4.19-0.285-8.1-1.11-12.2-0.99-0.33-1.98-0.66-3-1h3v-4c-0.99-0.33-1.98-0.66-3-1h3c0.861-17.3 1.11-34.5 1.12-51.8 0.0025-0.982 5e-3 -1.96 0.00757-2.98 0.0223-10.7-0.114-21.3-0.912-32-0.296-4.44-0.317-8.86-0.22-13.3h2c-0.0658-1.17-0.132-2.34-0.199-3.55-2.17-39.3-2.17-39.3-1.26-59 0.569-12.9 0.584-25.8 0.587-38.7 0.00232-1.09 0.00463-2.18 0.00702-3.31 0.0226-11.9-0.114-23.7-0.912-35.6-0.324-5.61-0.31-11.2-0.22-16.8h-3c-0.0289-3.79-0.0468-7.58-0.0625-11.4-0.00838-1.08-0.0168-2.16-0.0254-3.27-0.00322-1.03-0.00645-2.06-0.00977-3.12-0.00524-0.953-0.0105-1.91-0.0159-2.89 0.114-2.34 0.114-2.34 1.11-4.34h2v-9c-0.99-0.33-1.98-0.66-3-1 0.33-2.97 0.66-5.94 1-9h2v-7h-3c0.126-1.93 0.126-1.93 0.254-3.9 0.103-1.68 0.206-3.36 0.309-5.04 0.0561-0.85 0.112-1.7 0.17-2.58 0.0725-1.21 0.0725-1.21 0.146-2.45 0.0471-0.749 0.0943-1.5 0.143-2.27 0.183-1.79 0.183-1.79-1.02-2.77-0.0878-2.15-0.107-4.29-0.0977-6.44 0.00322-1.31 0.00645-2.61 0.00977-3.96 0.00836-1.39 0.0168-2.78 0.0254-4.17 0.00501-1.39 0.00958-2.79 0.0137-4.18 0.0118-3.42 0.0283-6.84 0.0488-10.3 0.99-0.33 1.98-0.66 3-1-0.99-0.33-1.98-0.66-3-1v-26h3v-4h-3v-92h3v-8h-3v-94h3c0.33-2.64 0.66-5.28 1-8h-4v-2h4v-3h-4v-2c0.928-0.124 0.928-0.124 1.88-0.25 2.31-0.563 2.31-0.563 3.38-2.81 0.247-0.639 0.495-1.28 0.75-1.94h2c0.206-0.619 0.413-1.24 0.625-1.88 1.92-2.97 4.04-3.26 7.38-4.12v-2c3.72-3.85 7.66-4.99 12.7-6.29 7.83-2.41 7.83-2.41 8.49-2.34z" fill="#103B1A"/>
<path transform="translate(856 275)" d="m0 0c2.83-0.00584 5.66-0.0156 8.49-0.0263 4.5-0.0166 9-0.0229 13.5-0.0212 1.68-8.44e-4 3.37-0.00504 5.05-0.0127 2.32-0.00973 4.64-0.00703 6.96-0.00103 1.97-0.00214 1.97-0.00214 3.97-0.00432 3.04 0.247 3.04 0.247 5.04 2.25 2.57 0.648 2.57 0.648 5 1v4c-0.66 0.33-1.32 0.66-2 1l4 1v4c1.15 0.122 1.15 0.122 2.33 0.246 2.67 0.754 2.67 0.754 4.22 2.54 2.76 5.22 4.03 9.33 4.45 15.2 0.33 0.33 0.66 0.66 1 1 1.11 7.72 1.33 15.5 1.55 23.2 0.0209 0.704 0.0418 1.41 0.0634 2.13 0.566 19.5 0.549 39 0.552 58.5 7.22e-4 3.14 0.00288 6.29 0.0055 9.43 0.00917 11 0.0133 22.1 0.0125 33.1-6.02e-4 10.2 0.01 20.4 0.0257 30.6 0.0132 8.84 0.0184 17.7 0.0178 26.5-2.52e-4 5.24 0.00243 10.5 0.0132 15.7 0.103 53.8 0.103 53.8-3.24 66.7-0.129 1.37-0.221 2.74-0.281 4.12-0.0374 0.772-0.0748 1.54-0.113 2.34-0.0348 0.798-0.0696 1.6-0.105 2.42-0.226 5.13-0.645 10.1-1.5 15.1 0.00523 1.63 0.0472 3.25 0.125 4.88 0.0274 4.97-0.465 9.73-1.25 14.6-0.0927 0.695-0.185 1.39-0.281 2.1-0.352 1.99-0.352 1.99-1.59 5.4-2.93 1.86-2.93 1.86-6 3-1.52 0.835-1.52 0.835-3.06 1.69-2.96 1.32-4.75 1.59-7.94 1.31v3c1.65 0.33 3.3 0.66 5 1v1h-5v3c-1.65 0.33-3.3 0.66-5 1 0.495 1.49 0.495 1.49 1 3-16.7 0.147-33.5-0.0206-50.2-0.318-2.18-0.0377-4.37-0.0721-6.55-0.103-3.11-0.0453-6.21-0.103-9.32-0.164-0.941-0.0116-1.88-0.0231-2.85-0.035-0.871-0.0199-1.74-0.0397-2.64-0.0602-0.759-0.0133-1.52-0.0266-2.3-0.0404-2.11-0.278-2.11-0.278-6.11-2.28h12c-1.65-0.33-3.3-0.66-5-1v-2c-0.99-0.66-1.98-1.32-3-2h8c-1.65-0.33-3.3-0.66-5-1v-2c1.09-0.227 2.19-0.454 3.31-0.688 3.68-1.03 3.68-1.03 5.88-3.38 1.13-4.1-0.298-6.27-2.21-9.95-0.98-1.99-0.98-1.99-0.98-3.99h-2c-0.318-1.48-0.629-2.96-0.938-4.44-0.174-0.824-0.348-1.65-0.527-2.5-1.41-8.1-1.68-16-1.68-24.2-0.00529-1.8-0.00529-1.8-0.0107-3.63-0.00879-3.31-0.0132-6.61-0.0158-9.92-0.00392-3.57-0.0136-7.15-0.0226-10.7-0.0149-6.19-0.0265-12.4-0.0359-18.6-0.0139-8.95-0.0351-17.9-0.0584-26.9-0.0379-14.5-0.0728-29.1-0.105-43.6-0.0019-0.869-0.0038-1.74-0.00576-2.63-0.0268-12.3-0.0507-24.7-0.0734-37-0.0016-0.87-0.00319-1.74-0.00484-2.64-0.00159-0.869-0.00319-1.74-0.00483-2.63-0.0268-14.5-0.0612-29-0.102-43.5-0.0248-8.93-0.0431-17.9-0.0532-26.8-0.00739-6.12-0.0219-12.2-0.0421-18.4-0.0114-3.53-0.0195-7.06-0.019-10.6 5.07e-4 -3.83-0.0143-7.65-0.0306-11.5 0.00262-1.11 0.00523-2.23 0.00793-3.37-0.0372-5.6-0.451-10.2-2.28-15.5-0.247-1.42-0.247-1.42-0.5-2.88-0.247-1.05-0.247-1.05-0.5-2.12-0.66-0.33-1.32-0.66-2-1h2v-4c-0.66-0.33-1.32-0.66-2-1 1.32-0.33 2.64-0.66 4-1-0.495-1.98-0.495-1.98-1-4-15.8-0.33-31.7-0.66-48-1v-1c29.3-0.893 58.7-1.14 88-1.18z" fill="#0F2E17"/>
<path transform="translate(1226 1106)" d="m0 0c2.7 2.17 5.3 4.4 7.86 6.73 0.62 0.539 1.24 1.08 1.88 1.63 18 16.6 29.6 43 31.3 67.3 0.097 2.96 0.124 5.91 0.107 8.87-0.00737 1.57-0.00737 1.57-0.0149 3.18-0.413 27.5-12.6 51.3-31.8 70.6-12.4 11.9-27.1 19.8-43.5 24.4-1.06 0.32-2.12 0.639-3.21 0.969-27.2 7.12-55.3-0.0911-79-13.9-24-14.6-39-38.2-45.8-65.1-5.07-20.9-2.27-42.7 7-62 0.452-0.994 0.905-1.99 1.37-3.01 11.8-25.1 34-44.3 59.9-53.7 1.22-0.424 2.45-0.848 3.71-1.29 1.11-0.414 2.22-0.828 3.36-1.25 28.5-9.27 62.9-0.742 86.8 16.5z" fill="#161717"/>
<path transform="translate(643 275)" d="m0 0c0.89-0.00283 1.78-0.00565 2.7-0.00857 4.69-0.0149 9.38-0.0242 14.1-0.0285 4.84-0.00552 9.68-0.0297 14.5-0.058 3.73-0.0186 7.47-0.0238 11.2-0.0254 1.79-0.00303 3.57-0.011 5.36-0.0242 2.49-0.017 4.98-0.0152 7.47-0.00869 0.735-0.00921 1.47-0.0184 2.23-0.0279 3.12 0.0256 5.3 0.232 8.07 1.72 1.51 1.67 1.51 1.67 1.51 4.67-1.32 0.66-2.64 1.32-4 2v9c2.64 0.33 5.28 0.66 8 1v2h2c0.0815 1.58 0.139 3.17 0.188 4.75 0.0348 0.882 0.0696 1.76 0.105 2.67-0.347 3.05-1.18 4.38-3.29 6.58h-2v2h2c4.34 12.4 3.26 26.8 3.55 39.8 0.0519 2.24 0.109 4.48 0.167 6.72 0.0303 1.32 0.0606 2.63 0.0918 3.99 0.0722 3.27 0.0722 3.27 0.693 5.57 0.74 4.35 0.635 8.66 0.626 13.1 0.00263 1.53 0.00263 1.53 0.00531 3.1 0.00441 3.4 0.00147 6.79-0.00189 10.2 6.75e-4 2.4 0.00165 4.8 0.0029 7.2 0.00148 5.06-6.73e-4 10.1-0.00534 15.2-0.00558 6.34-0.0024 12.7 0.00344 19 0.0187 24-0.0396 48-0.579 71.9-0.0194 0.894-0.0388 1.79-0.0588 2.71-0.625 27.9-0.625 27.9-2.5 33.5h-2v12h2c1.58 7.19 2.21 14.2 2.25 21.6 0.00902 0.786 0.018 1.57 0.0273 2.38-0.0202 3.87-0.0837 5.77-2.28 9.06h-3v2h-2v14c1.65 0.66 3.3 1.32 5 2 1 1 1 1 1.1 3.94-0.0116 1.19-0.0232 2.39-0.0352 3.62-0.00902 1.2-0.018 2.4-0.0273 3.63-0.0116 0.927-0.0232 1.85-0.0352 2.81-1.98 0.33-3.96 0.66-6 1-0.33 0.99-0.66 1.98-1 3h-2v2h-3c-0.33 1.32-0.66 2.64-1 4h-6c-0.33 0.99-0.66 1.98-1 3-1.65 0.33-3.3 0.66-5 1v5c1.65-0.33 3.3-0.66 5-1 0.33 1.32 0.66 2.64 1 4-17.3 0.31-34.7-0.549-52-2 0.66-0.33 1.32-0.66 2-1 0.33-0.99 0.66-1.98 1-3-1.98-0.99-3.96-1.98-6-3-0.33 2.31-0.66 4.62-1 7h-7c-1.22-6.32-1.22-6.32-0.25-9.38 1.25-1.62 1.25-1.62 4.25-2.62v-10c2.97-0.33 5.94-0.66 9-1-0.495-1.48-0.495-1.48-1-3-0.66-0.33-1.32-0.66-2-1-0.562-1.93-0.562-1.93-1-4.31-0.8-4.32-1.55-7.52-5.08-10.4-2.93-3.55-2.59-7.1-2.67-11.6-0.0296-0.84-0.0593-1.68-0.0898-2.55-0.0705-2.07-0.118-4.14-0.16-6.2h-2v-3c-0.99-0.33-1.98-0.66-3-1-1.74-3.43-2.46-6.85-3.06-10.6-0.156-0.941-0.312-1.88-0.473-2.85-1.38-10.4-1.61-20.7-1.61-31.2-3e-3 -1.67-0.0064-3.33-0.0102-5-0.00879-4.5-0.0112-9.01-0.0118-13.5-7.15e-4 -2.83-0.00286-5.67-0.0055-8.5-0.00925-9.94-0.0133-19.9-0.0125-29.8 5.96e-4 -9.17-0.00986-18.3-0.0257-27.5-0.0133-7.94-0.0184-15.9-0.0178-23.8 2.51e-4 -4.71-0.00235-9.42-0.0132-14.1-0.0404-18.9 0.152-37.8 1.13-56.7 0.0389-0.79 0.0778-1.58 0.118-2.39 0.112-2.22 0.238-4.44 0.368-6.67 0.0718-1.25 0.144-2.51 0.218-3.8 0.403-3.39 1.3-6.2 2.41-9.42 0-3.11-0.174-5.11-1-8 1.49-0.495 1.49-0.495 3-1-0.33-1.32-0.66-2.64-1-4h-2c-0.853-3.09-1-5.79-1-9h3v-2c-0.99-0.33-1.98-0.66-3-1-0.33-2.31-0.66-4.62-1-7-0.94 0.0522-0.94 0.0522-1.9 0.105-0.817 0.0271-1.63 0.0541-2.48 0.082-0.812 0.0348-1.62 0.0696-2.46 0.105-0.714-0.0967-1.43-0.193-2.16-0.293-2-3-2-3-2-7l-2-1c3.47-0.495 3.47-0.495 7-1v-3l-2-1c4.46-0.495 4.46-0.495 9-1v-5h-14v-1c9.94-1.21 19.9-1.18 29.9-1.2z" fill="#10361A"/>
<path transform="translate(954 275)" d="m0 0c1.2 8.56e-4 2.4 0.00171 3.63 0.00259 14.9 0.0114 29.8 0.0316 44.7 0.0599 1.26 2.52 1.1 4.31 1.06 7.12-0.00902 0.91-0.018 1.82-0.0273 2.76-0.0174 1.05-0.0174 1.05-0.0352 2.12h-9v-4c-2.31 0.33-4.62 0.66-7 1 0.33 5.61 0.66 11.2 1 17 1.65 0.66 3.3 1.32 5 2v2c0.66 0.33 1.32 0.66 2 1-0.49 0.833-0.49 0.833-0.99 1.68-1.17 2.67-1.23 4.48-1.17 7.39 0.011 0.98 0.0219 1.96 0.0332 2.97 0.0319 1.53 0.0319 1.53 0.0645 3.09 0.129 7.38-0.0225 14.5-0.938 21.9h5c-1.32 0.33-2.64 0.66-4 1-0.33 5.94-0.66 11.9-1 18h5c-0.00515 0.675-0.0103 1.35-0.0156 2.04-0.127 16.7-0.253 33.4-0.376 50.1-0.0595 8.07-0.12 16.1-0.182 24.2-0.0657 8.58-0.13 17.2-0.192 25.7-0.0112 1.55-0.0225 3.09-0.0338 4.64-0.12 16.3-0.223 32.5-0.198 48.8 0.00164 1.19 0.00329 2.39 0.00498 3.62 0.00917 5.46 0.0254 10.9 0.0535 16.4 0.0352 9.21 0.00812 18.3-1.06 27.5h-5c0.0116 0.632 0.0232 1.26 0.0352 1.91 0.0907 8.99-0.204 18-1.66 26.9-0.488 4.15-0.166 8.09 0.625 12.2 0.33 0.33 0.66 0.66 1 1 0.0406 1.67 0.0427 3.33 0 5 0.99 0.33 1.98 0.66 3 1 0.875 2.06 0.875 2.06 1 5-2.64 4.68-6.72 8.14-11.6 10.4-4.16 1.1-8.29 0.869-12.6 0.684-2.93-0.201-2.93-0.201-5.86 0.957v4c-0.66 0.33-1.32 0.66-2 1 0.66 0.33 1.32 0.66 2 1v3c-0.66 0.33-1.32 0.66-2 1v2c-14.5 0.0606-29-0.082-43.6-0.372-3.36-0.0661-6.72-0.125-10.1-0.184-2.16-0.0419-4.32-0.0842-6.48-0.127-0.992-0.0167-1.98-0.0334-3.01-0.0506-5.05-0.108-9.9-0.418-14.9-1.27v-1c3.63-0.33 7.26-0.66 11-1v-3c-1.65-0.33-3.3-0.66-5-1v-1h5v-3c1.05-0.29 1.05-0.29 2.12-0.586 0.91-0.26 1.82-0.521 2.76-0.789 1.36-0.383 1.36-0.383 2.74-0.773 2.53-0.712 2.53-0.712 4.38-2.85 2.13-0.625 2.13-0.625 4-1 2.01-9.22 3.33-17.7 3.01-27.2-0.00781-2.79-0.00781-2.79 0.992-5.79 0.134-1.36 0.223-2.72 0.281-4.09 0.0561-1.18 0.0561-1.18 0.113-2.38 0.0348-0.815 0.0696-1.63 0.105-2.47 0.0692-1.61 0.142-3.23 0.219-4.84 0.0303-0.714 0.0606-1.43 0.0918-2.16 0.189-2.06 0.189-2.06 0.668-3.92 5.33-21.8 2.8-47.1 2.76-69.4-0.00892-5.48-0.00702-11-0.00664-16.4-9.31e-4 -9.2-0.00954-18.4-0.0233-27.6-0.0157-10.6-0.021-21.1-0.0203-31.7 6.81e-4 -11.4-0.00629-22.7-0.0154-34.1-0.00211-3.22-0.00284-6.45-0.00324-9.67 3.53-40.2 3.53-40.2-3.17-76.3-0.297-1.54-0.563-3.08-0.812-4.62-0.95-4.9-2.25-8.32-5.19-12.4-2.11-1.04-2.11-1.04-4-1v-4h-6c1.32-0.66 2.64-1.32 4-2v-4c-24.1-0.33-48.2-0.66-73-1v-1c8.81-0.186 17.6-0.349 26.4-0.5 1.04-0.0178 1.04-0.0178 2.1-0.036 31.4-0.529 62.7-0.549 94.1-0.527z" fill="#0D2A15"/>
<path transform="translate(1155,762)" d="m0 0c9.09-0.0694 18.2-0.123 27.3-0.155 4.22-0.0157 8.44-0.0369 12.7-0.0709 4.07-0.0325 8.14-0.0505 12.2-0.0583 1.56-0.00556 3.11-0.0164 4.67-0.0326 2.17-0.0217 4.35-0.0248 6.52-0.0234 1.24-0.00666 2.48-0.0133 3.75-0.0202 1.43 0.179 1.43 0.179 2.9 0.361 2.37 3.56 2.26 5.07 2.27 9.29 0.00453 0.641 0.00906 1.28 0.0137 1.94 0.0127 2.15 0.011 4.31 0.00937 6.46 0.00598 1.54 0.0128 3.09 0.0204 4.63 0.0177 4.2 0.0224 8.4 0.0236 12.6 0.00142 2.63 0.00569 5.26 0.011 7.89 0.0185 9.21 0.0267 18.4 0.0251 27.6-0.00119 8.54 0.0198 17.1 0.0515 25.6 0.0263 7.35 0.0369 14.7 0.0356 22.1-5.05e-4 4.38 0.00494 8.76 0.0264 13.1 0.154 33.8-2 63.4-26.7 89-15.7 15.5-36 24.9-58.1 24.8-0.999-0.00838-2-0.0168-3.03-0.0254-1.02-0.00451-2.04-0.00902-3.1-0.0137-2.51-0.0117-5.02-0.0281-7.53-0.0488v-2c-1.98-0.33-3.96-0.66-6-1v-10h-2v5c-1.32-0.33-2.64-0.66-4-1 0.0116-1.11 0.0232-2.21 0.0352-3.36 0.0606-8.79-0.0363-17.5-0.39-26.3-0.667-16.6-0.795-33.2-0.78-49.8 0.0026-3.78 1.66e-4 -7.55-0.00139-11.3-0.0018-6.33 5.24e-4 -12.7 0.00534-19 0.00545-7.25 0.00366-14.5-0.00183-21.7-0.00458-6.3-0.00516-12.6-0.00256-18.9 0.00153-3.73 0.00184-7.46-0.00154-11.2-0.0101-13.3-0.00891-26.6 0.457-39.9 0.022-0.861 0.0439-1.72 0.0666-2.61 0.278-6.4 1.39-12.2 5.55-17.3 3.85-3.04 6.92-3.9 11.8-4.25 1.48-0.112 1.48-0.112 2.98-0.227 0.748-0.049 1.5-0.098 2.27-0.148v-3c5.28-0.66 10.6-1.32 16-2 0.33-0.99 0.66-1.98 1-3-0.495-0.99-0.495-0.99-1-2z" fill="#009E58"/>
<path transform="translate(1187,763)" d="m0 0v1c-11.4 0.495-11.4 0.495-23 1v1c-1.18 0.124-2.35 0.247-3.56 0.375-2.8 0.339-5.09 0.831-7.81 1.69-4.61 1.19-8.89 1.11-13.6 0.938v3c-2.67 0.667-5.33 1.33-8 2-0.695 0.174-1.39 0.348-2.11 0.527-1.48 0.37-2.97 0.735-4.46 1.1-4.27 2.41-4.96 6.94-6.44 11.4-0.335 3.06-0.422 6.13-0.554 9.21-0.0421 0.966-0.0842 1.93-0.128 2.93-0.512 13.1-0.464 26.2-0.453 39.3 0.00259 3.77 1.68e-4 7.54-0.00139 11.3-0.00181 6.33 5.4e-4 12.7 0.00534 19 0.00542 7.23 0.00369 14.5-0.00183 21.7-0.0046 6.29-0.00515 12.6-0.00256 18.9 0.00153 3.72 0.00186 7.44-0.00154 11.2-0.0131 16.4 0.165 32.8 0.826 49.2 0.366 9.5 0.154 18.8-0.689 28.3h3c0.33-1.32 0.66-2.64 1-4h2c1.12 6.62 1.12 6.62 0 10 1.98 0.33 3.96 0.66 6 1v2h15v1c-31.4 0.114-62.7 0.081-94.1-0.318-3.05-0.0387-6.09-0.0729-9.14-0.103-3.6-0.0363-7.2-0.0824-10.8-0.136-1.97-0.0273-3.93-0.0452-5.9-0.063-1.17-0.0199-2.33-0.0397-3.53-0.0602-1.53-0.02-1.53-0.02-3.09-0.0404-2.41-0.278-2.41-0.278-4.41-2.28 1.32-0.33 2.64-0.66 4-1v-2h-9c-0.33-0.66-0.66-1.32-1-2 7.75-1 7.75-1 10-1v2c1.98-0.99 1.98-0.99 4-2v-2c-0.66-0.33-1.32-0.66-2-1 0.99-1.98 0.99-1.98 2-4h-2c-2-2.93-3.09-5.04-2.75-8.62 0.512-2.48 1.08-4.93 1.75-7.38h2c0.961-6.05 0.939-11.2 0.0515-17.2-1.55-11.9-1.43-23.9-1.5-35.9-0.0213-2.51-0.0433-5.01-0.0659-7.52-0.0451-5.23-0.084-10.5-0.118-15.7-0.0435-6.65-0.1-13.3-0.162-19.9-0.0466-5.17-0.0872-10.3-0.126-15.5-0.0188-2.45-0.0391-4.9-0.0611-7.34-0.0981-11.4-0.147-22.7 0.381-34 0.0347-0.785 0.0694-1.57 0.105-2.38 0.333-6.08 1.39-11.8 2.87-17.7 0.768-2.93 0.768-2.93 0.621-6.75 0.247-0.66 0.495-1.32 0.75-2 0.0825-0.66 0.165-1.32 0.25-2-1.29-1.38-2.63-2.71-4-4-1.25-2.75-1.25-2.75-2-5h2v-3c1.6-0.505 3.21-1 4.81-1.5 0.893-0.278 1.79-0.557 2.71-0.844 2.48-0.656 2.48-0.656 5.48-0.656 0.66-1.32 1.32-2.64 2-4h2v-2c-1.32 0.33-2.64 0.66-4 1 0.746-1.95 0.746-1.95 2-4 1.85-0.622 1.85-0.622 4.06-0.793 0.797-0.0728 1.59-0.146 2.41-0.221 0.833-0.0574 1.67-0.115 2.52-0.174 1.65-0.136 3.29-0.276 4.94-0.418 0.731-0.0531 1.46-0.106 2.21-0.161 1.94-0.142 1.94-0.142 3.85-1.23-0.66-0.66-1.32-1.32-2-2 45-0.968 90-1.9 135 0z" fill="#00984E"/>
<path transform="translate(257,315)" d="m0 0h4c0.196 8.36-0.101 16.6-0.643 25-2.28 35.4-2.79 70.7-2.74 106 0.012 8.33 0.00575 16.7-5.46e-4 25-0.0118 16.3-0.00695 32.6 0.00528 48.9 0.0106 14.3 0.0151 28.5 0.0137 42.8-8.4e-5 0.953-1.68e-4 1.91-2.55e-4 2.89-3.52e-4 3.87-7.36e-4 7.74-0.00117 11.6-0.00395 36.1 0.00866 72.2 0.0295 108 0.0184 32 0.0242 64 0.0187 96-3.46e-4 2.06-6.93e-4 4.12-0.00104 6.18-1.71e-4 1.02-3.42e-4 2.04-5.18e-4 3.09-8.54e-4 5.13-0.00168 10.3-0.00247 15.4-1.57e-4 1.01-3.14e-4 2.02-4.76e-4 3.07-4e-3 26.9 0.00149 53.7 0.00999 80.6 9.07e-4 2.89 0.00181 5.79 0.00272 8.68 6.01e-4 1.92 0.00121 3.84 0.00183 5.75 0.0042 13.3 0.00481 26.6 0.00289 39.9-0.00245 17.1 0.0017 34.3 0.0172 51.4 0.00799 9.04 0.0107 18.1 0.00536 27.1-0.00301 6.06 0.00143 12.1 0.0115 18.2 0.00555 3.44 0.00712 6.88 0.00183 10.3-0.0213 15.2 0.407 30.3 1.56 45.5 0.622 8.17 0.862 16.2 0.676 24.4 0.0298 3.99 0.463 7.72 1.03 11.7 0.0296-4.04 0.047-8.08 0.0625-12.1 0.0126-1.68 0.0126-1.68 0.0254-3.4 0.00322-1.13 0.00645-2.26 0.00977-3.42 0.00524-1.02 0.0105-2.03 0.0159-3.08-0.0998-3.49-0.336-6.93-0.613-10.4-0.494-6.83-0.642-13.6-0.63-20.5-0.00263-1.84-0.00263-1.84-0.00531-3.71-0.00382-3.37-0.00324-6.74-7.22e-4 -10.1 0.00165-3.68-0.00252-7.35-0.00591-11-0.00514-6.44-0.00657-12.9-0.00554-19.3 0.00153-9.57-0.00265-19.1-0.00787-28.7-0.00966-18.1-0.0125-36.2-0.0131-54.3-4.6e-4 -14-0.00252-28-0.0057-42-8.98e-4 -4.04-0.00179-8.08-0.00267-12.1-2.21e-4 -1-4.42e-4 -2.01-6.7e-4 -3.04-0.00615-28.2-0.0101-56.5-0.00966-84.7 1.56e-5 -1.06 3.12e-5 -2.13 4.72e-5 -3.23 8.31e-5 -5.4 1.82e-4 -10.8 2.85e-4 -16.2 1.99e-5 -1.07 3.99e-5 -2.14 6.04e-5 -3.25 4.04e-5 -2.17 8.22e-5 -4.33 1.25e-4 -6.5 6.11e-4 -33.6-0.00686-67.2-0.0206-101-0.0154-37.8-0.024-75.7-0.023-114 7.46e-5 -4.05 1.23e-4 -8.1 1.54e-4 -12.2 1.17e-5 -0.997 2.33e-5 -1.99 3.53e-5 -3.02 3.06e-5 -15.9-0.00631-31.9-0.015-47.8-0.00855-16.1-0.00941-32.2-0.00289-48.2 0.00333-8.68 0.00366-17.4-0.00535-26-0.0381-38.5 0.394-76.8 2.25-115h6v3c0.66-0.99 1.32-1.98 2-3 3.62-0.188 3.62-0.188 7 0 0.33 0.99 0.66 1.98 1 3 0.66 0.33 1.32 0.66 2 1 0.0198 0.671 0.0396 1.34 0.0601 2.03 0.0955 3.05 0.205 6.1 0.315 9.16 0.0309 1.06 0.0619 2.11 0.0938 3.2 0.0387 1.02 0.0773 2.04 0.117 3.1 0.0471 1.41 0.0471 1.41 0.0952 2.84 0.189 2.68 0.189 2.68 1.32 4.99 1.11 3 1.25 5.23 1.25 8.42 0.00751 1.73 0.00751 1.73 0.0152 3.49-0.00468 1.27-0.00936 2.53-0.0142 3.83 0.00209 1.36 0.00505 2.73 0.00881 4.09 0.00781 3.77 0.00311 7.53-0.00356 11.3-0.00506 4.09 0.00144 8.18 0.00649 12.3 0.00724 7.18 7e-3 14.4 0.00191 21.5-0.00755 10.7-0.00371 21.3 0.00242 32 0.0105 19.1 0.00961 38.1 0.00384 57.2-0.00503 16.7-0.00635 33.4-0.00395 50 1.53e-4 1.1 3.06e-4 2.21 4.63e-4 3.35 6.23e-4 4.49 0.00126 8.97 0.00192 13.5 0.00612 42.1 5.65e-4 84.2-0.0102 126-0.00949 37.4-0.00864 74.8 9.22e-4 112 0.0107 42 0.015 84 0.00878 126-6.41e-4 4.48-0.00127 8.96-0.00189 13.4-2.37e-4 1.65-2.37e-4 1.65-4.79e-4 3.34-0.00228 16.7 3.89e-4 33.3 0.00544 50 0.00571 18.9 0.0043 37.9-0.00656 56.8-0.00588 10.6-0.00624 21.2 0.00129 31.8 0.00447 7.08 0.00171 14.2-0.00701 21.2-0.00477 4.04-0.00635 8.08 8.12e-4 12.1 0.00645 3.67 0.00373 7.35-0.00636 11-0.00297 1.95 0.00388 3.89 0.0111 5.84-0.0256 5.92-0.31 10.9-2.27 16.5-0.271 2.31-0.482 4.62-0.625 6.94-0.0748 1.14-0.15 2.29-0.227 3.46-0.049 0.857-0.098 1.71-0.148 2.6-0.99 0.33-1.98 0.66-3 1-0.33 0.99-0.66 1.98-1 3h-3c0.0206-1.3 0.0412-2.6 0.0625-3.94 0.00755-4.76-0.464-9.35-1.06-14.1h-2c-0.66 1.98-1.32 3.96-2 6h-1v-6h-2c-0.66 1.98-1.32 3.96-2 6h-2c-6.4-6.4-4.4-24.8-4.56-33.6-0.0447-2.11-0.092-4.22-0.143-6.33-0.0452-1.91-0.0835-3.82-0.121-5.73-0.108-3.63-0.39-7.23-0.676-10.8-0.492-6.82-0.638-13.6-0.626-20.4-0.00175-1.22-0.00351-2.45-0.00531-3.71-0.00382-3.37-0.00324-6.74-7.22e-4 -10.1 0.00165-3.68-0.00252-7.35-0.00591-11-0.00514-6.44-0.00657-12.9-0.00554-19.3 0.00153-9.57-0.00265-19.1-0.00787-28.7-0.00966-18.1-0.0125-36.2-0.0131-54.3-4.6e-4 -14-0.00252-28-0.0057-42-8.98e-4 -4.04-0.00179-8.08-0.00267-12.1-2.21e-4 -1-4.42e-4 -2.01-6.7e-4 -3.04-0.00615-28.2-0.0101-56.5-0.00966-84.7 1.56e-5 -1.06 3.12e-5 -2.13 4.72e-5 -3.23 8.31e-5 -5.4 1.82e-4 -10.8 2.85e-4 -16.2 1.99e-5 -1.07 3.99e-5 -2.14 6.04e-5 -3.25 4.04e-5 -2.17 8.22e-5 -4.33 1.25e-4 -6.5 6.11e-4 -33.6-0.00686-67.2-0.0206-101-0.0154-37.8-0.024-75.7-0.023-114 7.46e-5 -4.05 1.23e-4 -8.1 1.54e-4 -12.2 1.17e-5 -0.997 2.33e-5 -1.99 3.53e-5 -3.02 3.06e-5 -15.9-0.00631-31.9-0.015-47.8-0.00855-16.1-0.00941-32.2-0.00289-48.2 0.00333-8.68 0.00366-17.4-0.00535-26-0.0381-38.5 0.394-76.8 2.25-115z" fill="#134621"/>
<path transform="translate(902,762)" d="m0 0c-0.33 0.99-0.66 1.98-1 3-1.25 0.0376-1.25 0.0376-2.52 0.0759-3.13 0.0959-6.25 0.195-9.38 0.296-2 0.0639-4 0.124-6 0.184-11.2-0.557-11.2-0.557-21.1 2.44-2.86 0.237-5.7 0.422-8.56 0.562-0.806 0.0432-1.61 0.0864-2.44 0.131-2 0.106-4 0.207-5.99 0.307v3c-4 1.33-8 2.67-12 4-0.0412 1.28-0.0825 2.56-0.125 3.88-0.0232 0.719-0.0464 1.44-0.0703 2.18 0.012 2.18 0.012 2.18 2.2 3.95 0.691 5.17-0.0397 9.22-2 14 0 1.98 0.0024 3.95 0.0625 5.93-0.0979 3.24-1.04 6-2.06 9.07h-2c-0.0496 4.87-0.0858 9.75-0.11 14.6-0.01 1.66-0.0237 3.31-0.041 4.97-0.0244 2.39-0.0356 4.78-0.0444 7.16-0.0103 0.735-0.0206 1.47-0.0313 2.23-9.53e-4 4.42 0.68 7.9 2.23 12 0.28 3.36 0.152 5.59-1.01 8.76-1.09 3.55-1.19 6.41-1.12 10.1 0.018 1.15 0.0361 2.3 0.0547 3.49 0.0232 0.869 0.0464 1.74 0.0703 2.63h2c0.84 4.54 1.15 8 0.0625 12.5-1.28 6.03-1.52 12-1.69 18.1-0.0358 1.17-0.0715 2.35-0.108 3.56-0.102 3.6-0.186 7.21-0.267 10.8-0.0287 1.08-0.0574 2.17-0.0869 3.28-0.284 11.6-0.0816 22.6 2.2 34 0.37 1.89 0.641 3.8 0.892 5.71-0.66 0.66-1.32 1.32-2 2-0.0598 2.61-0.0598 2.61 0.312 5.5 0.0993 0.98 0.199 1.96 0.301 2.97 0.252 2.52 0.252 2.52 1.39 4.53 0.12 1.5 0.175 3 0.188 4.5 0.0142 0.794 0.0284 1.59 0.043 2.41-0.23 2.09-0.23 2.09-2.23 4.09-0.879 6.04 0.107 11.4 2.34 17 0.656 2.01 0.656 2.01 0.656 6.01h-2c-1.38 5.7-1.38 10.8 0.125 16.4 0.918 3.83 0.658 6.36-0.543 10.2-1.3 5.33-1.29 10.9-1.58 16.4h2v2c-0.66 0.33-1.32 0.66-2 1-2.13 7.39-1.49 16.1-0.438 23.7 0.598 4.37 0.148 8.47-0.406 12.8-0.155 2.47 0.183 4.12 0.844 6.48 0.0389 2.33 0.0449 4.67 0 7h2c0.254 7.38 0.254 7.38-1 10.4-1.4 4.99-1.25 9.71-1.2 14.9 0.00424 1.62 0.00424 1.62 0.00858 3.27 0.0112 3.43 0.0363 6.87 0.0617 10.3 0.01 2.33 0.0192 4.67 0.0273 7 0.022 5.71 0.0554 11.4 0.0977 17.1 0.66 0.33 1.32 0.66 2 1-0.66 2.31-1.32 4.62-2 7h2c3.18 6.37 1.12 15.5-1 22-0.335 3.21-0.335 3.21 0 6 0.66 0.66 1.32 1.32 2 2 0.195 2.38 0.195 2.38 0.125 5.12-0.018 0.91-0.0361 1.82-0.0547 2.76-0.0232 0.699-0.0464 1.4-0.0703 2.12-0.699 0.121-1.4 0.242-2.12 0.367-0.91 0.168-1.82 0.335-2.76 0.508-0.905 0.162-1.81 0.325-2.74 0.492-2.55 0.463-2.55 0.463-4.38 2.63-0.584 2.87-0.584 2.87 0 6 2.4 2.65 2.4 2.65 5 5 1.27 2.99 0.984 4.94 0 8h6v2c0.99-0.33 1.98-0.66 3-1 0.99 0.66 1.98 1.32 3 2-3.48 0.0588-6.96 0.0939-10.4 0.125-0.974 0.0168-1.95 0.0335-2.95 0.0508-6.17 0.0412-11.7-0.533-17.6-2.18-1.11-0.295-2.22-0.59-3.37-0.895-14.3-4.29-14.3-4.29-19.6-8.11-1.62-3.31-1.62-3.31-2-6 1.32 0.66 2.64 1.32 4 2v-9h-4c-1.16-9.91-1.16-9.91-0.5-14.3 0.65-4.79 0.159-9.28-0.242-14.1-0.349-4.87-0.348-9.72-0.258-14.6h1c0.182 0.592 0.364 1.18 0.551 1.79 1.41 4.42 2.82 8.33 5.45 12.2-0.453-2.64-0.919-4.84-2.12-7.25-1.28-4.02-0.538-7.64 0.125-11.8h1v5h2c-0.273-1.1-0.273-1.1-0.551-2.22-0.46-2.85-0.281-4.5 0.363-7.28 3.64-18.3 3.52-37 3.6-55.6 0.0188-2.64 0.0383-5.28 0.0587-7.91 0.0463-6.17 0.0833-12.3 0.117-18.5 0.0386-7.04 0.0879-14.1 0.138-21.1 0.103-14.5 0.192-28.9 0.273-43.4h2v-7h-2c-0.132-20.8-0.262-41.5-0.391-62.3-0.0598-9.65-0.12-19.3-0.182-28.9-0.0652-10.2-0.129-20.5-0.192-30.7-0.0168-2.73-0.0338-5.46-0.0509-8.18-0.208-33.4-0.208-33.4-0.181-49.7 0.00164-1.06 0.00329-2.12 0.00498-3.21 0.00892-4.61 0.0249-9.21 0.0535-13.8 0.00591-1.51 0.0118-3.01 0.0177-4.52 0.00842-1.25 0.0168-2.5 0.0255-3.78 0.091-2.77 0.091-2.77-1.11-4.82-0.226-1.7-0.409-3.41-0.562-5.12-0.0838-0.91-0.168-1.82-0.254-2.76-0.0606-0.699-0.121-1.4-0.184-2.12l-2 2c-0.495-1.49-0.495-1.49-1-3-1.49 0.495-1.49 0.495-3 1v-3h2v-3h2c-0.495-1.03-0.99-2.06-1.5-3.12-1.48-3.41-1.76-6.13-1.5-9.88 0.105-2.21 0.105-2.21-1-5 4.69-1.7 9.29-2.71 14.2-3.56 5.47-0.952 5.47-0.952 10.8-2.44 1.73-0.068 3.46-0.085 5.19-0.0625 0.901 0.00902 1.8 0.018 2.73 0.0273 0.687 0.0116 1.37 0.0232 2.08 0.0352 0.495 0.99 0.495 0.99 1 2h7v-3h-7v-2h5c0.33-0.66 0.66-1.32 1-2 2.06-0.394 2.06-0.394 4.77-0.59 1.49-0.11 1.49-0.11 3.02-0.222 5.3-0.31 10.6-0.552 15.9-0.75 1.1-0.0432 2.19-0.0864 3.32-0.131 2.66-0.105 5.33-0.207 7.99-0.307v-1c4.53-0.144 9.07-0.287 13.6-0.427 1.54-0.048 3.08-0.0965 4.62-0.146 7.93-0.252 15.8-0.499 23.8-0.427z" fill="#008B45"/>
<path transform="translate(532,275)" d="m0 0 2 4h-10v2c-1.32 0.33-2.64 0.66-4 1 0.495 1.49 0.495 1.49 1 3 0.99 0.495 0.99 0.495 2 1-0.99 0.33-1.98 0.66-3 1 0.495 1.49 0.495 1.49 1 3 1.32 0.66 2.64 1.32 4 2-0.66 3.3-1.32 6.6-2 10-1.65 0.33-3.3 0.66-5 1 0.14 1.48 0.288 2.96 0.438 4.44 0.122 1.24 0.122 1.24 0.246 2.5 0.106 2.05 0.106 2.05 1.32 3.07v7c0.153 0.592 0.306 1.18 0.464 1.79 2.72 11.2 1.63 24 1.45 35.5-0.0438 2.97-0.0797 5.94-0.114 8.9-0.0512 4.42-0.105 8.84-0.16 13.3-0.156 12.7-0.278 25.4-0.39 38.1-0.00611 0.69-0.0122 1.38-0.0185 2.09-0.328 37.4-0.318 74.7-0.289 112 0.00213 2.76 0.00415 5.51 0.00616 8.27 0.0149 20.2 0.0355 40.4 0.0591 60.5 0.0288 24.6 0.0467 49.3 0.0611 73.9 0.00311 5.3 0.00633 10.6 0.00954 15.9 6.4e-4 1.06 0.00128 2.11 0.00194 3.2 0.0013 2.14 0.0026 4.27 0.00389 6.41 0.0013 2.14 0.0026 4.29 0.0039 6.43 0.0151 25 0.0323 50 0.0509 75 8.06e-4 1.09 0.00161 2.18 0.00244 3.3 0.0264 35.6 0.0632 71.1 0.104 107 0.0421 36.8 0.0709 73.6 0.0839 110 0.00185 5.19 0.00387 10.4 6e-3 15.6 4.16e-4 1.02 8.32e-4 2.04 0.00126 3.09 0.00711 16.4 0.0285 32.8 0.0555 49.2 0.0268 16.4 0.0394 32.8 0.0371 49.2-8.69e-4 9.73 0.00951 19.5 0.0358 29.2 0.0165 6.49 0.0185 13 0.00868 19.5-0.00518 3.7-0.00398 7.4 0.0149 11.1 0.0201 3.98 0.00938 7.96-0.00446 11.9 0.0108 1.15 0.0216 2.3 0.0327 3.48-0.056 6.82-1.07 11-4.52 16.9-0.67 3.11-0.67 3.11-0.75 6-0.0851 1.42-0.0851 1.42-0.172 2.88-0.0258 0.701-0.0516 1.4-0.0781 2.12h2v2h3c0.495 1.49 0.495 1.49 1 3 0.66 0.66 1.32 1.32 2 2-0.66 0.99-1.32 1.98-2 3-3.62 0.188-3.62 0.188-7 0v2h-6c-1.46 2.65-2 3.89-2 7-0.306 1.34-0.635 2.68-1 4 4.57 2.25 8.82 2.42 13.8 2.62 0.788 0.0387 1.58 0.0773 2.39 0.117 1.93 0.0937 3.87 0.177 5.8 0.258 0.33 0.66 0.66 1.32 1 2h-40v-1c3.96-0.33 7.92-0.66 12-1-1.32-0.66-2.64-1.32-4-2-0.33 0.66-0.66 1.32-1 2-1.65-0.66-3.3-1.32-5-2 3.27-1.88 6.28-2.49 10-3-0.99-0.33-1.98-0.66-3-1-0.66 0.33-1.32 0.66-2 1-2.62-0.938-2.62-0.938-5-2 0.735-1.63 1.49-3.26 2.25-4.88 0.418-0.905 0.835-1.81 1.27-2.74 1.64-2.64 2.72-3.15 5.48-4.38-0.00524-0.56-0.0105-1.12-0.0159-1.7-0.0208-2.54-0.0338-5.08-0.0466-7.62-0.00838-0.881-0.0168-1.76-0.0254-2.67-0.00322-0.848-0.00645-1.7-0.00977-2.57-0.00524-0.78-0.0105-1.56-0.0159-2.36 0.114-2.08 0.114-2.08 1.11-5.08 0.0937-2.03 0.126-4.06 0.126-6.1 0.00276-1.29 0.00552-2.57 0.00836-3.9-0.00199-1.44-0.00407-2.88-0.00623-4.32 0.00135-1.53 0.00313-3.05 0.00531-4.58 0.00475-4.22 0.00322-8.45 7.22e-4 -12.7-0.00163-4.58 0.0025-9.17 0.00591-13.8 0.00517-8.04 0.00657-16.1 0.00554-24.1-0.00152-12 0.00263-23.9 0.00787-35.9 0.00969-22.6 0.0125-45.2 0.0131-67.8 4.59e-4 -17.5 0.00251-34.9 0.0057-52.4 8.98e-4 -5.02 0.00179-10 0.00267-15.1 2.21e-4 -1.25 4.42e-4 -2.5 6.7e-4 -3.78 0.00616-35.1 0.0101-70.2 0.00966-105-1.58e-5 -1.34-3.15e-5 -2.68-4.72e-5 -4.01-7.34e-5 -6.04-1.62e-4 -12.1-2.54e-4 -18.1-4.11e-5 -2.69-8.13e-5 -5.39-1.21e-4 -8.08-2.04e-5 -1.35-4.14e-5 -2.7-6.31e-5 -4.05-6.8e-4 -42.6 0.00663-85.3 0.0205-128 0.0035-10.7 0.00697-21.5 0.0103-32.2 2.03e-4 -0.661 4.06e-4 -1.32 6.15e-4 -2 0.0109-35.7 0.0129-71.4 0.0122-107-7.46e-5 -5.02-1.23e-4 -10-1.54e-4 -15.1-1.75e-5 -1.86-1.75e-5 -1.86-3.53e-5 -3.75-3.08e-5 -19.9 0.00636-39.8 0.015-59.8 0.00847-20 0.00947-40 0.00289-60-0.0037-11.9-0.00185-23.8 0.00794-35.7 0.00599-7.94 0.00472-15.9-0.00247-23.8-0.00389-4.53-0.00463-9.05 0.00346-13.6 0.0073-4.12 0.00532-8.24-0.00392-12.4-0.00172-1.48-1.12e-4 -2.96 0.0053-4.44 0.692-14.1 0.692-14.1-3.49-27.1-1.5-1.5-1.5-1.5-3.76-3.23v-2h-2v-2c0.66-0.33 1.32-0.66 2-1v-2h-2v-4c-0.66-0.33-1.32-0.66-2-1 1.32-0.33 2.64-0.66 4-1v-5h-54v-1c30.7-0.665 61.3-1.18 92-1z" fill="#0F3C1B"/>
<path transform="translate(1190 275)" d="m0 0c3.95 0.0104 7.9 0.0148 11.8 0.0198 7.68 0.0106 15.4 0.0275 23 0.0488 1.51 3.03 1.14 6.16 1.13 9.48 0.00227 0.78 0.00453 1.56 0.00687 2.36 0.00636 2.63 0.00551 5.26 0.00469 7.89 0.00299 1.88 0.00639 3.76 0.0102 5.64 0.00886 5.13 0.0112 10.3 0.0118 15.4 7.11e-4 3.21 0.00285 6.42 0.0055 9.64 0.00927 11.2 0.0133 22.5 0.0125 33.7-5.97e-4 10.4 0.00988 20.8 0.0257 31.3 0.0132 8.97 0.0184 17.9 0.0178 26.9-2.53e-4 5.35 0.00248 10.7 0.0132 16 0.107 57.2 0.107 57.2-4.99 77.3-0.265 1.08-0.531 2.16-0.804 3.28-6.87 27.2-20.6 51.4-39.4 72.2h-1c-0.125-6.75-0.125-6.75 1-9h-2c-0.33 0.66-0.66 1.32-1 2-0.66-0.66-1.32-1.32-2-2 0.99-0.33 1.98-0.66 3-1-0.536-0.536-1.07-1.07-1.62-1.62-1.38-2.38-1.38-2.38-0.562-5.62 0.392-0.908 0.784-1.82 1.19-2.75h5c0.33-0.66 0.66-1.32 1-2h3c-1.32-0.33-2.64-0.66-4-1-0.33-1.65-0.66-3.3-1-5-0.846 0.0825-1.69 0.165-2.56 0.25-5.03-0.366-8.55-2.25-12-5.86-4.46-5.8-4.62-11.8-4.79-18.9-0.0203-0.769-0.0406-1.54-0.0616-2.33-0.0665-2.66-0.124-5.32-0.179-7.98-0.0208-0.96-0.0416-1.92-0.0631-2.91-0.729-34.9-0.574-69.8-0.571-105-3.52e-4 -7.99-0.012-16-0.0259-24-0.0131-7.81-0.0184-15.6-0.0178-23.4 2.53e-4 -4.62-0.00247-9.24-0.0132-13.9-0.00975-4.32-0.00971-8.64-0.00248-13 0.00104-1.57-0.00125-3.14-0.00736-4.71-0.0398-11 0.585-21.6 2.84-32.3 0.465-2.47 0.208-3.93-0.46-6.33-1.31-5.25-1.74-10.5-2.12-15.9 2.64 0.33 5.28 0.66 8 1v-4c-3.47 0.458-6.67 0.891-10 2v-4h-26v-1c18.7-1.07 37.4-1.12 56.1-1.07z" fill="#0C2314"/>
<path transform="translate(916,298)" d="m0 0c0.228 2.05 0.456 4.1 0.684 6.15 0.135 1.86 0.135 1.86 1.32 2.85 1.11 7.72 1.33 15.5 1.55 23.2 0.0209 0.704 0.0418 1.41 0.0634 2.13 0.566 19.5 0.549 39 0.552 58.5 7.22e-4 3.14 0.00288 6.29 0.0055 9.43 0.00917 11 0.0133 22.1 0.0125 33.1-6.02e-4 10.2 0.01 20.4 0.0257 30.6 0.0132 8.84 0.0184 17.7 0.0178 26.5-2.52e-4 5.24 0.00243 10.5 0.0132 15.7 0.103 53.8 0.103 53.8-3.24 66.7-0.129 1.37-0.221 2.74-0.281 4.12-0.0374 0.772-0.0748 1.54-0.113 2.34-0.0348 0.798-0.0696 1.6-0.105 2.42-0.226 5.13-0.643 10.1-1.5 15.1-0.0639 1.96-0.0864 3.92-0.0625 5.88 0.00902 0.967 0.018 1.93 0.0273 2.93 0.0116 0.724 0.0232 1.45 0.0352 2.2h-7c-0.33-4.62-0.66-9.24-1-14-1.65-0.33-3.3-0.66-5-1-7.51-5.45-8.48-10.4-10.1-19.1-0.173-0.88-0.347-1.76-0.525-2.67-1.06-5.8-1.64-11.6-1.95-17.5-0.0423-0.784-0.0847-1.57-0.128-2.38-0.396-7.83-0.527-15.6-0.593-23.5-0.0216-2.52-0.0485-5.03-0.0767-7.55-0.0687-6.23-0.129-12.5-0.189-18.7-0.0512-5.31-0.106-10.6-0.166-15.9-0.0263-2.46-0.0473-4.93-0.068-7.39-0.0166-1.52-0.0335-3.04-0.0507-4.55-0.0125-1.31-0.0251-2.63-0.038-3.98-0.159-4-0.627-7.84-1.15-11.8-0.0874-2.55-0.131-5.1-0.133-7.66-9.57e-4 -0.705-0.00191-1.41-0.0029-2.14-6.76e-4 -1.49 0.00114-2.97 0.00534-4.46 0.00529-2.22 6.8e-5 -4.43-0.00635-6.65 6.62e-4 -1.46 0.00195-2.92 0.00391-4.38 0.00113-1.29 0.00226-2.58 0.00342-3.91 0.065-4.13 0.342-8.25 0.62-12.4 0.489-7.36 0.695-14.7 0.77-22.1 0.0216-2.12 0.0486-4.23 0.0767-6.35 0.0686-5.24 0.129-10.5 0.189-15.7 0.0513-4.47 0.106-8.94 0.166-13.4 0.0262-2.07 0.0472-4.14 0.068-6.2 0.246-18.7 0.246-18.7 2.24-20.7 0.212-2.8 0.376-5.58 0.5-8.38 0.366-8.22 0.366-8.22 1.5-11.6h3c0.33-2.97 0.66-5.94 1-9 4.07-2.04 6.59-2.03 11-1v-2c6.88-2 6.88-2 8-2z" fill="#102F15"/>
<path transform="translate(291,318)" d="m0 0h2c1.17 2.35 1.2 3.95 1.32 6.57 0.0419 0.896 0.0838 1.79 0.127 2.71 0.0393 0.937 0.0786 1.87 0.119 2.84 0.0432 0.945 0.0864 1.89 0.131 2.86 0.106 2.34 0.208 4.67 0.307 7.01 0.66 0.33 1.32 0.66 2 1v2h2c1.27 2.54 1.13 4.3 1.13 7.14 0.00376 1.65 0.00376 1.65 0.00759 3.33-0.00234 1.22-0.00468 2.44-0.00709 3.69 0.00145 1.29 0.00291 2.58 0.0044 3.91 0.00392 3.61 0.00155 7.22-0.00178 10.8-0.00252 3.92 7.18e-4 7.84 0.00324 11.8 0.00362 6.88 0.0035 13.8 9.53e-4 20.6-0.00377 10.2-0.00186 20.5 0.00121 30.7 0.00528 18.3 0.0048 36.5 0.00192 54.8-0.00251 16-0.00317 32-0.00198 48 7.64e-5 1.06 1.53e-4 2.12 2.31e-4 3.21 3.11e-4 4.3 6.3e-4 8.6 9.6e-4 12.9 0.00306 40.4 2.81e-4 80.7-0.0051 121-0.00474 35.9-0.00432 71.7 4.61e-4 108 0.00535 40.3 0.00748 80.5 0.00439 121-3.21e-4 4.29-6.34e-4 8.59-9.43e-4 12.9-7.91e-5 1.06-1.58e-4 2.11-2.4e-4 3.2-0.00114 16 1.94e-4 31.9 0.00272 47.9 0.00286 18.2 0.00215 36.3-0.00328 54.5-0.00294 10.2-0.00312 20.3 6.46e-4 30.5 0.00224 6.79 8.5e-4 13.6-0.0035 20.4-0.00238 3.87-0.00319 7.74 4.06e-4 11.6 0.00383 4.17-6.75e-5 8.34-0.00472 12.5 0.00234 1.2 0.00468 2.4 0.00709 3.64-0.0132 5.89-0.223 11.7-0.899 17.5-0.297 2.58-0.431 5.16-0.531 7.75-0.04 1-0.0799 2-0.121 3.03-0.0386 1.04-0.0772 2.08-0.117 3.16-0.043 1.1-0.086 2.19-0.13 3.32-0.135 3.46-0.266 6.93-0.397 10.4-0.0915 2.36-0.183 4.73-0.275 7.09-0.224 5.76-0.444 11.5-0.662 17.3h-2c-0.0606 0.785-0.121 1.57-0.184 2.38-0.445 5.57-0.938 11.1-1.82 16.6h-3c0.33-0.33 0.66-0.66 1-1 0.0762-1.9 0.083-3.81 0.0625-5.71-0.00773-1.23-0.0155-2.46-0.0234-3.72-0.025-2.53-0.051-5.05-0.0781-7.58-0.0385-6.29-0.00304-12.5 0.296-18.8 0.713-15 0.635-29.8-0.023-44.8-0.281-6.54-0.515-13.1-0.738-19.6-0.0233-0.684-0.0466-1.37-0.0706-2.07-0.539-16.1-0.65-32.3-0.673-48.4-0.0011-0.727-0.0022-1.45-0.00333-2.2-0.0127-9.22-0.00867-18.4 0.00129-27.7 0.00869-8.45 0.0052-16.9 0.00166-25.4-0.0062-15.6-0.0032-31.2 0.00559-46.8 0.00868-15.4 0.0135-30.8 0.0133-46.2-7.65e-6 -0.966-1.53e-5 -1.93-2.32e-5 -2.93-4.09e-5 -3.92-1.07e-4 -7.85-2.06e-4 -11.8-9.01e-4 -36.6 0.00896-73.2 0.0244-110 0.0137-32.5 0.0199-64.9 0.0192-97.4-4.04e-5 -2.09-8.08e-5 -4.18-1.21e-4 -6.27-2.04e-5 -1.03-4.07e-5 -2.07-6.17e-5 -3.13-1.01e-4 -5.2-1.91e-4 -10.4-2.7e-4 -15.6-1.67e-5 -1.03-3.34e-5 -2.05-5.06e-5 -3.11-3.65e-4 -27.2 0.00418-54.5 0.0104-81.7 2.2e-4 -0.969 4.41e-4 -1.94 6.67e-4 -2.94 8.88e-4 -3.89 0.00178-7.79 0.00269-11.7 0.00315-13.5 0.00467-27 0.00511-40.5 5.98e-4 -17.4 0.00461-34.8 0.0144-52.1 0.00509-9.17 0.00753-18.3 6e-3 -27.5-7.39e-4 -6.14 0.0022-12.3 0.00804-18.4 0.00322-3.49 0.00497-6.98 0.00224-10.5-0.00763-13.8 0.123-27.5 0.913-41.3 0.385-6.91 0.332-13.8 0.286-20.7-0.00505-1.35-0.0096-2.7-0.0137-4.05-0.0115-3.21-0.0278-6.43-0.0488-9.64z" fill="#134621"/>
<path transform="translate(837,277)" d="m0 0c8-0.0232 16-0.041 24-0.0518 3.71-0.00521 7.43-0.0123 11.1-0.0236 3.59-0.0109 7.17-0.0168 10.8-0.0194 1.37-0.00184 2.73-0.00545 4.1-0.0109 1.92-0.00728 3.83-0.00768 5.75-0.0078 1.09-0.00222 2.18-0.00444 3.3-0.00673 2.77 0.113 5.26 0.491 7.96 1.12v4c-0.66 0.33-1.32 0.66-2 1 1.32 0.33 2.64 0.66 4 1v3c-2.96-0.308-5.92-0.621-8.88-0.938-0.842-0.087-1.68-0.174-2.55-0.264-0.806-0.087-1.61-0.174-2.44-0.264-0.744-0.0786-1.49-0.157-2.25-0.238-1.88-0.297-1.88-0.297-3.88-1.3-2.09 0.236-4.19 0.476-6.28 0.73-3.04 0.301-6.04 0.449-9.09 0.52-1.5 0.0387-1.5 0.0387-3.02 0.0781-3-0.379-3.69-1.09-5.6-3.33-1.81 0.304-1.81 0.304-4 1-2.67 0.103-5.32 0.0446-8 0-0.0271 1.6-0.0464 3.21-0.0625 4.81-0.0116 0.893-0.0232 1.79-0.0352 2.71-0.0124 2.61-0.0124 2.61 1.1 5.48 0.99 0.33 1.98 0.66 3 1v13c-1.49 0.495-1.49 0.495-3 1-0.692 1.85-0.692 1.85-1 4-0.375 2.19-0.375 2.19-1 4-1.49 0.495-1.49 0.495-3 1-0.33 0.66-0.66 1.32-1 2h4v2c-1.49 0.495-1.49 0.495-3 1-0.33 0.66-0.66 1.32-1 2 3.47 0.495 3.47 0.495 7 1-0.33 0.887-0.66 1.77-1 2.69-1.63 5.59-1.36 11.5-1 17.3 0.495 0.495 0.495 0.495 1 1 0.125 2.5 0.125 2.5 0 5-0.33 0.33-0.66 0.66-1 1-0.11 2.49-0.155 4.96-0.158 7.45-0.00494 0.789-0.00988 1.58-0.015 2.39-0.0155 2.66-0.0238 5.33-0.0321 7.99-0.00957 1.9-0.0196 3.8-0.03 5.7-0.0271 5.18-0.0481 10.4-0.068 15.5-0.0218 5.41-0.0492 10.8-0.0761 16.2-0.05 10.2-0.0949 20.5-0.138 30.7-0.0493 11.7-0.104 23.3-0.16 35-0.114 24-0.221 48-0.323 72h-3v31c1.32 0.33 2.64 0.66 4 1v3h2v2h2v3h2c0.792 2.69 1.58 5.37 2.38 8.06 0.222 0.752 0.443 1.5 0.672 2.28 0.441 1.5 0.881 3 1.32 4.49 0.412 1.41 0.826 2.81 1.24 4.21 1.39 4.73 1.39 4.73 1.39 6.95 1.65 0.33 3.3 0.66 5 1v12c-2.97 0.33-5.94 0.66-9 1-0.509-2.55-1.01-5.05-1.31-7.62-0.866-2.99-2.17-3.67-4.69-5.38v-2c-0.887 0.144-1.77 0.289-2.69 0.438-3.31-0.438-3.31-0.438-4.72-1.89-0.84-1.22-1.65-2.46-2.42-3.72-1.21-1.88-2.55-3.3-4.18-4.82-0.495 3.96-0.495 3.96-1 8-3-1-3-1-4.56-3-4.33-9.04-3.87-19.1-4.06-28.9-0.0185-0.853-0.037-1.71-0.0561-2.59-0.528-24.3-0.455-48.7-0.429-73 0.00733-6.87 0.00867-13.7 0.0098-20.6 0.00216-12.2 0.00875-24.5 0.0183-36.7 0.00924-11.9 0.0163-23.7 0.0205-35.6 2.63e-4 -0.736 5.25e-4 -1.47 7.96e-4 -2.23 0.00131-3.7 0.00257-7.39 0.00381-11.1 0.0103-30.4 0.0279-60.9 0.0503-91.3h2v-2c1.32-0.33 2.64-0.66 4-1 0.33-1.32 0.66-2.64 1-4 1.32-0.33 2.64-0.66 4-1-0.0546-4.1-0.0546-4.1-1-8-2.22-1.95-4.25-2.8-7-4-0.99 1.49-0.99 1.49-2 3l2 1c-0.99 1.49-0.99 1.49-2 3-1.32-0.99-2.64-1.98-4-3 0.186-0.577 0.371-1.15 0.562-1.75 0.478-2.46 0.195-3.89-0.562-6.25h3v-2c2.64-0.33 5.28-0.66 8-1v-2z" fill="#102F15"/>
<path transform="translate(785,792)" d="m0 0c0.66 0.33 1.32 0.66 2 1v2h-2v3h-2c0.33 0.66 0.66 1.32 1 2 0.99-0.33 1.98-0.66 3-1 0.33 0.66 0.66 1.32 1 2 0.66-0.33 1.32-0.66 2-1 0.0606 0.771 0.121 1.54 0.184 2.34 0.0838 1 0.168 2.01 0.254 3.04 0.0812 0.998 0.162 2 0.246 3.02 0.166 2.58 0.166 2.58 1.32 4.6 0.0958 2.72 0.13 5.42 0.12 8.14 8.54e-4 0.851 0.00171 1.7 0.00259 2.58 0.00165 2.87-0.00387 5.74-0.00932 8.6-2.82e-4 2.05-1.24e-4 4.1 4.43e-4 6.15 2.88e-4 5.58-0.00561 11.2-0.0126 16.7-0.00624 5.82-0.00684 11.6-0.00803 17.5-0.00311 11-0.0113 22.1-0.0213 33.1-0.0112 12.6-0.0167 25.1-0.0217 37.7-0.0105 25.8-0.0281 51.7-0.0503 77.5h2v7h-2c0.00184 0.6 0.00369 1.2 0.00559 1.82 0.0444 14.7 0.0774 29.4 0.098 44.1 0.0103 7.11 0.0242 14.2 0.0473 21.3 0.0201 6.2 0.0329 12.4 0.0373 18.6 0.00258 3.28 0.0096 6.55 0.0233 9.83 0.0743 18.5-0.75 36.6-3.84 54.9-0.442 2.52-0.442 2.52-0.367 5.43-0.99-0.33-1.98-0.66-3-1 0.414 5.31 0.414 5.31 2.12 10.2 0.875 1.75 0.875 1.75 0.5 4-0.206 0.577-0.413 1.16-0.625 1.75-2.71-2.36-3.85-4.6-5.12-7.94-0.333-0.855-0.665-1.71-1.01-2.59-1.5-4.28-2.13-8.34-2.59-12.9-0.128-1.27-0.255-2.54-0.387-3.84-0.0974-0.993-0.0974-0.993-0.197-2.01-0.193-1.96-0.393-3.92-0.592-5.88-0.128-1.28-0.255-2.57-0.387-3.89-0.114-1.15-0.228-2.3-0.346-3.48-0.128-1.5-0.252-3-0.373-4.51-0.0827-0.971-0.165-1.94-0.251-2.94-0.974-13.1-0.893-26.2-0.88-39.4 0.00229-3.54-0.00124-7.09-0.00398-10.6-0.00442-6.92-0.0035-13.8-5.87e-4 -20.8 0.00227-5.63 0.00256-11.3 0.00148-16.9-1.53e-4 -0.805-3.06e-4 -1.61-4.64e-4 -2.44-3.2e-4 -1.64-6.44e-4 -3.27-9.73e-4 -4.91-0.00284-15.3 4.16e-4 -30.6 0.0058-45.9 0.00446-13.1 0.00369-26.2-9.19e-4 -39.3-0.00537-15.3-0.00745-30.5-0.00439-45.8 3.19e-4 -1.63 6.33e-4 -3.26 9.43e-4 -4.89 1.54e-4 -0.802 3.09e-4 -1.6 4.68e-4 -2.43 8.58e-4 -5.61-5.83e-4 -11.2-0.00295-16.8-0.00283-6.86-2e-3 -13.7 0.00328-20.6 0.0026-3.49 0.0037-6.98 3.51e-4 -10.5-0.0109-15 0.181-29.9 1.13-44.8 0.0991-1.61 0.0991-1.61 0.2-3.26 0.611-9.47 1.39-18.6 6.8-26.7 0.66-0.33 1.32-0.66 2-1z" fill="#008B42"/>
<path transform="translate(803,809)" d="m0 0h6c0.11 0.638 0.219 1.28 0.332 1.93 0.159 0.826 0.317 1.65 0.48 2.5 0.151 0.824 0.302 1.65 0.457 2.5 0.241 0.682 0.482 1.36 0.73 2.07 0.99 0.33 1.98 0.66 3 1v6h-3c0.474 0.639 0.949 1.28 1.44 1.94 3.9 7.64 2.72 17.5 2.69 25.9-0.00535 2.13-3.19e-5 4.26 0.00635 6.38 0.00214 6.69-0.105 13.3-1.02 19.9-0.25 2.14-0.25 2.14 0.883 4.92 0.167 5.09-0.0866 9.99-0.562 15.1-0.479 6.26-0.322 12.4 0 18.6 0.543 10.7 0.68 21.4 0.688 32.1 0.00361 1.17 0.00361 1.17 0.00729 2.36 0.00592 2.23 0.00454 4.46 5.19e-4 6.69-0.00113 1.29-0.00226 2.59-0.00342 3.92-0.106 2.7-0.462 4.72-1.13 7.29-0.0693 1.92-0.0846 3.84-0.0625 5.75 0.00773 1.1 0.0155 2.2 0.0234 3.34 0.0129 1.15 0.0258 2.29 0.0391 3.47 0.0255 2.27 0.0465 4.54 0.0625 6.82 0.0116 1.01 0.0232 2.01 0.0352 3.05-0.0977 2.57-0.0977 2.57-1.1 5.57h-2c0.141 1.79 0.288 3.58 0.438 5.38 0.0812 0.998 0.162 2 0.246 3.02 0.166 2.58 0.166 2.58 1.32 4.6 0.0975 2.1 0.13 4.21 0.125 6.31 0.00387 1.7 0.00387 1.7 0.00781 3.43-0.133 3.26-0.133 3.26-0.633 5.51-0.613 3.37-0.63 6.56-0.633 9.98-9.57e-4 0.679-0.00191 1.36-0.0029 2.06-6.77e-4 1.43 0.00115 2.85 0.00534 4.28 0.00539 2.19 2.29e-5 4.38-0.00635 6.57 6.6e-4 1.39 0.00194 2.77 0.00391 4.16 0.00113 1.26 0.00226 2.52 0.00342 3.82-0.2 2.78-0.2 2.78 1.13 3.88 0.147 1.85 0.228 3.7 0.281 5.55 0.0374 1.16 0.0748 2.31 0.113 3.5 0.0348 1.22 0.0696 2.44 0.105 3.7 0.243 8.2 0.605 16.3 1.4 24.5 0.0983 2.6-0.261 4.25-0.896 6.73-0.0941 2.39-0.131 4.79-0.133 7.19-9.57e-4 0.698-0.00191 1.4-0.0029 2.12-6.8e-4 1.48 0.00116 2.96 0.00534 4.44 0.00529 2.22 8.12e-5 4.45-0.00635 6.67-0.00229 7.45 0.182 14.8 1.02 22.2 0.116 2.41-0.2 4.12-0.883 6.42-0.214 1.75-0.401 3.5-0.562 5.25-0.0838 0.892-0.168 1.78-0.254 2.7-0.0909 1.01-0.0909 1.01-0.184 2.05h-2c0.0412 0.928 0.0825 1.86 0.125 2.81-0.125 3.19-0.125 3.19-2.12 6.19-3.13 0.188-3.13 0.188-6 0-3.05-9.55-3.05-9.55-3.56-14.1-0.217-1.45-0.217-1.45-0.438-2.94-0.66-0.33-1.32-0.66-2-1-1.34-8.32-1.07-17-1.05-25.4 7.65e-4 -0.99 0.00153-1.98 0.00232-3 0.0301-11.8 0.289-23.7 0.552-35.5 0.0484-2.26 0.0966-4.51 0.145-6.77 0.116-5.43 0.235-10.9 0.355-16.3h3v-14h-3c-0.195-6.05-0.195-6.05 0-8 0.99-0.99 0.99-0.99 2-2 0.368-1.93 0.368-1.93 0.414-4.13 0.0387-0.806 0.0773-1.61 0.117-2.44 0.0464-1.26 0.0464-1.26 0.0938-2.55 0.0387-0.849 0.0773-1.7 0.117-2.57 0.0944-2.1 0.177-4.2 0.258-6.3h-2c-0.956-4-1.1-7.71-1.06-11.8 0.00902-1.16 0.018-2.32 0.0273-3.52 0.0116-0.88 0.0232-1.76 0.0352-2.67h3v-6h-3c-0.0269-2.63-0.0468-5.25-0.0625-7.88-0.00838-0.746-0.0168-1.49-0.0254-2.26-0.0254-5.64-0.0254-5.64 1.09-7.86h2c-0.712-1.52-0.712-1.52-1.44-3.06-3.36-7.17-2.71-15.4-2.69-23.1-0.00175-1.21-0.0035-2.42-0.00531-3.67-0.00364-3.3-0.0028-6.61 3.79e-4 -9.91 0.00254-3.47 1.81e-4 -6.93-0.00139-10.4-0.00182-5.82 5.7e-4 -11.6 0.00534-17.5 0.00544-6.72 0.00368-13.4-0.00183-20.2-0.00454-5.78-0.00518-11.6-0.00256-17.3 0.00156-3.45 0.00178-6.89-0.00154-10.3-0.00344-3.84 0.00133-7.68 0.0069-11.5-0.00202-1.14-0.00405-2.27-0.00613-3.44 0.0134-4.98 0.0659-9.71 1.14-14.6h3c-0.186-1.18-0.371-2.35-0.562-3.56-0.787-6.82-0.021-13.6 0.562-20.4h2c0.33-1.98 0.66-3.96 1-6z" fill="#008E46"/>
<path transform="translate(754,782)" d="m0 0c0.66 0.33 1.32 0.66 2 1-0.317 1.28-0.634 2.55-0.961 3.87-1.13 5.07-1.47 10-1.66 15.2-0.058 1.3-0.058 1.3-0.117 2.62-0.093 2.1-0.176 4.21-0.258 6.31h2c0.195 1.79 0.381 3.58 0.562 5.38 0.104 0.998 0.209 2 0.316 3.02 0.121 2.6 0.121 2.6-0.879 4.6h-2v9h3v5h-3c-0.0459 36.1-0.0811 72.2-0.102 108-0.0025 4.28-0.00509 8.55-0.00773 12.8-5.25e-4 0.851-0.00105 1.7-0.00159 2.58-0.00867 13.7-0.0244 27.4-0.0429 41.2-0.0188 14.1-0.0298 28.2-0.0339 42.3-0.00272 8.68-0.0113 17.4-0.0277 26.1-0.0107 5.98-0.0137 12-0.0112 17.9 0.00126 3.43-0.00161 6.87-0.0114 10.3-0.0486 17.9 0.707 35.7 2.24 53.5-1.99-2.49-3.02-4.08-3.94-7.19-0.351-0.928-0.701-1.86-1.06-2.81-2.03-0.969-2.03-0.969-4-1v-5c-1.65 0.33-3.3 0.66-5 1-1.01-6.28-1.34-12.5-1.61-18.9 0.184-3.89 0.184-3.89-1.39-7.14-0.0972-1.68-0.124-3.37-0.123-5.06-0.00199-1.1-0.00398-2.21-0.00603-3.34 0.00291-1.23 0.00583-2.45 0.00883-3.72-8.54e-4 -1.29-0.00171-2.58-0.00259-3.91-0.00225-3.6 0.00178-7.2 0.00678-10.8 0.0043-3.88 0.00286-7.75 0.0021-11.6-5.25e-4 -6.72 0.00262-13.4 0.00824-20.2 0.00811-9.72 0.0107-19.4 0.012-29.2 0.00219-15.8 0.00885-31.5 0.0183-47.3 0.00917-15.3 0.0163-30.6 0.0205-46 2.63e-4 -0.944 5.25e-4 -1.89 7.96e-4 -2.86 0.0013-4.73 0.00257-9.47 0.00381-14.2 0.0104-39.3 0.028-78.6 0.0503-118 0.99-0.33 1.98-0.66 3-1v4h2c0.33-0.66 0.66-1.32 1-2h2c0.33-1.65 0.66-3.3 1-5h2v-3c0.66-0.33 1.32-0.66 2-1 0.165-0.825 0.33-1.65 0.5-2.5 0.165-0.825 0.33-1.65 0.5-2.5 0.66-0.33 1.32-0.66 2-1z" fill="#008B42"/>
<path transform="translate(390,331)" d="m0 0c3.08 4.94 3.2 10.3 2.53 15.9-0.743 6.23-0.666 12.5-0.656 18.7-0.00135 1.38-0.00313 2.76-0.00531 4.14-0.00472 3.79-0.00323 7.57-7.22e-4 11.4 0.00164 4.12-0.00251 8.24-0.00591 12.4-0.00515 7.22-0.00657 14.4-0.00554 21.7 0.00152 10.7-0.00264 21.5-0.00787 32.2-0.00968 20.3-0.0125 40.6-0.0131 60.9-4.6e-4 15.7-0.00252 31.4-0.0057 47.1-8.98e-4 4.52-0.00179 9.04-0.00267 13.6-2.21e-4 1.12-4.42e-4 2.25-6.7e-4 3.4-0.00616 31.6-0.0101 63.2-0.00966 94.8 1.56e-5 1.19 3.12e-5 2.38 4.72e-5 3.61 8.31e-5 6.04 1.82e-4 12.1 2.85e-4 18.1 1.99e-5 1.2 3.99e-5 2.4 6.04e-5 3.64 4.04e-5 2.43 8.22e-5 4.85 1.25e-4 7.28 6.12e-4 37.7-0.00688 75.4-0.0206 113-0.0154 42.4-0.024 84.8-0.023 127 7.46e-5 4.53 1.23e-4 9.05 1.54e-4 13.6 1.17e-5 1.11 2.33e-5 2.23 3.53e-5 3.38 3.07e-5 17.9-0.00634 35.8-0.015 53.7-0.0085 18-0.00944 36-0.00289 54 0.00368 10.7 0.00192 21.4-0.00794 32-0.00605 7.16-0.00465 14.3 0.00247 21.5 0.00384 4.06 0.00477 8.12-0.00346 12.2-0.0298 15.8 0.192 31.4 1.21 47.2 0.0431 0.676 0.0863 1.35 0.131 2.05 0.0979 6.92 0.0979 6.92 1.92 13.4 0.134 3.67 0.167 6.5-1 10-0.0951 2.35-0.13 4.71-0.125 7.06-0.00258 1.25-0.00516 2.5-0.00781 3.79-0.0867 3.05-0.0867 3.05 1.13 5.15 0.04 2 0.0435 4 0 6h-2c-0.33 1.32-0.66 2.64-1 4-2.66 0.392-4.39 0.406-6.67-1.11-1.48-1.25-2.91-2.57-4.33-3.89 0.99-2.97 1.98-5.94 3-9h2v-2c-0.99-0.33-1.98-0.66-3-1 0.33-0.66 0.66-1.32 1-2h2v-2c-0.99-0.33-1.98-0.66-3-1-2.25-5.4-1.95-8.79-0.312-14.3 0.39-1.43 0.776-2.87 1.16-4.3 0.196-0.732 0.392-1.46 0.594-2.22 2.98-11.5 3.83-22.9 4.17-34.7 0.0314-1.04 0.0314-1.04 0.0634-2.09 0.455-15.4 0.252-30.8-0.0677-46.2-0.656-31.9-0.865-63.8-0.351-95.7 0.0123-0.768 0.0247-1.54 0.0374-2.33 0.0254-1.57 0.0508-3.14 0.0762-4.72 0.644-39.8 0.541-79.5 0.091-119-0.396-35.2-0.419-70.3 0.083-106 0.465-32.8 0.36-65.5-0.0416-98.3-0.372-30.4-0.571-60.8-0.0625-91.2 0.0189-1.14 0.0189-1.14 0.0381-2.3 0.0378-2.27 0.0757-4.55 0.114-6.82 0.0499-3 0.0995-5.99 0.149-8.99 0.0122-0.734 0.0244-1.47 0.037-2.22 0.298-18.1 0.353-36.3 0.35-54.4-6.67e-5 -0.786-1.33e-4 -1.57-2.02e-4 -2.38-0.00469-19.8-0.17-39.7-0.697-59.5-0.383-14.6-0.467-29.3-0.459-43.9 5.09e-4 -0.953 0.00102-1.91 0.00154-2.89 0.00669-9.68 0.0247-19.4 0.0578-29 0.0117-3.64 0.0198-7.27 0.0274-10.9 0.00694-2.54 0.0196-5.08 0.0323-7.62 0.00359-1.54 0.0069-3.08 0.00989-4.62 0.00516-0.694 0.0103-1.39 0.0156-2.1 3.72e-4 -3.27-0.249-6.13-1.11-9.28 0.559-2.14 0.559-2.14 1.44-4.25 0.287-0.706 0.575-1.41 0.871-2.14 0.228-0.531 0.456-1.06 0.691-1.61z" fill="#114420"/>
<path transform="translate(859,332)" d="m0 0c2.97 0.33 5.94 0.66 9 1 1.26 2.91 2 4.8 2 8h-6v7h5v3h-5v6h5c1.24 3.58 0.749 6.34 0 10h2c-0.33 2.31-0.66 4.62-1 7h-6v8h6c1.58 3.17 1.14 6.57 1.13 10 0.00175 0.833 0.0035 1.67 0.00531 2.52 0.00443 2.78 0.00147 5.55-0.00189 8.33 6.74e-4 1.95 0.00165 3.9 0.0029 5.84 0.00148 4.11-6.79e-4 8.22-0.00534 12.3-0.0056 5.18-0.00238 10.4 0.00344 15.5 0.0522 54.5 0.0522 54.5-2.13 76.4h-5v25h-5v-3h2v-8c-0.66-0.33-1.32-0.66-2-1h2v-7c-0.99-0.33-1.98-0.66-3-1-0.773-6.26-1.19-12.4-1.32-18.7-0.0208-0.932-0.0417-1.86-0.0631-2.82-0.0661-3.06-0.125-6.13-0.183-9.19-0.0212-1.05-0.0424-2.1-0.0642-3.19-0.51-25.7-0.476-51.4-0.373-77.1h3v-6h-2c-1-3.01-1.1-5.04-1.06-8.19 0.00902-0.901 0.018-1.8 0.0273-2.73 0.0116-0.687 0.0232-1.37 0.0352-2.08h3v-31h2v-6h-2v-5c-0.66-0.33-1.32-0.66-2-1-0.193-4.82 0.243-8.5 2-13z" fill="#112F15"/>
<path transform="translate(253,275)" d="m0 0h107v1c-7.26 0.33-14.5 0.66-22 1v5c-11.9 0.99-11.9 0.99-24 2v9c-3-2-3-2-4-5-0.99-0.33-1.98-0.66-3-1-0.66 1.32-1.32 2.64-2 4v-4c-0.908-0.124-1.82-0.248-2.75-0.375-2.89-0.555-4.86-0.945-7.25-2.62-0.75-2.12-0.75-2.12-1-4h4v-2c-1.86 0.0174-1.86 0.0174-3.75 0.0352-13.8 0.0861-27.5-0.36-41.2-1.04v-2z" fill="#0F441F"/>
<path transform="translate(256,284)" d="m0 0c0.66 0.33 1.32 0.66 2 1v3c2.33-0.959 2.33-0.959 4-4 0.33 1.32 0.66 2.64 1 4 0.99-0.33 1.98-0.66 3-1-0.33-0.66-0.66-1.32-1-2 1.75-0.0272 3.5-0.0465 5.25-0.0625 1.46-0.0174 1.46-0.0174 2.95-0.0352 2.45 0.0857 4.46 0.391 6.8 1.1v3h3c0.489 7.21 0.489 7.21-1.75 10.8-0.743 0.722-1.49 1.44-2.25 2.19l-1.81 1.81c-3.14 1.7-5.68 1.44-9.19 1.19-0.99-0.33-1.98-0.66-3-1-0.33 0.99-0.66 1.98-1 3-0.66-0.99-1.32-1.98-2-3h-2c-0.33 0.99-0.66 1.98-1 3-1.32-0.33-2.64-0.66-4-1-0.029-3.1-0.0468-6.21-0.0625-9.31-0.00838-0.881-0.0168-1.76-0.0254-2.67-0.00322-0.848-0.00645-1.7-0.00977-2.57-0.00524-0.78-0.0105-1.56-0.0159-2.36 0.114-2.08 0.114-2.08 1.11-5.08z" fill="#134621"/>
<path transform="translate(982,1016)" d="m0 0h1v234c-1.65 0.33-3.3 0.66-5 1-1.12-4.75-1.12-4.75 0-7-1.32-0.33-2.64-0.66-4-1 0.495-0.99 0.495-0.99 1-2h3c0.33-2.31 0.66-4.62 1-7h2c-9.22e-4 -0.953-0.00184-1.91-0.00279-2.89-0.0223-23.3-0.0387-46.7-0.049-70-0.00513-11.3-0.0121-22.6-0.0236-33.8-0.01-9.85-0.0164-19.7-0.0186-29.5-0.00129-5.2-0.00427-10.4-0.0116-15.6-0.0301-22.1 0.04-44.1 1.11-66.1z" fill="#008E46"/>
<path transform="translate(908,762)" d="m0 0h61v2c-30.7 0.495-30.7 0.495-62 1 0.33-0.99 0.66-1.98 1-3z" fill="#008B44"/>
<path transform="translate(857,277)" d="m0 0c5.89-0.0248 11.8-0.0429 17.7-0.0549 2-0.00502 4.01-0.0118 6.01-0.0205 2.88-0.0122 5.76-0.0178 8.65-0.0222 1.34-0.00774 1.34-0.00774 2.71-0.0156 4.12-3.7e-4 7.95 0.0656 12 1.11v2h-42v-2h-5v-1z" fill="#0F2F18"/>
<path transform="translate(1208,522)" d="m0 0c2.31 0.66 4.62 1.32 7 2 1.19 3.43 0.802 5.38-0.438 8.75-0.287 0.799-0.575 1.6-0.871 2.42-0.228 0.603-0.456 1.21-0.691 1.83-3-1-3-1-6-3-0.328-2.57-0.328-2.57-0.25-5.56 0.0155-0.991 0.0309-1.98 0.0469-3 0.203-2.43 0.203-2.43 1.2-3.43z" fill="#0B2615"/>
<path transform="translate(1152,770)" d="m0 0v3c-6.32 1.07-12.6 2.13-19 3 3.38-6.75 12.5-6.48 19-6z" fill="#00994F"/>
<path transform="translate(764,1193)" d="m0 0c4.88 0.875 4.88 0.875 6 2 0.0409 2.33 0.0424 4.67 0 7 0.99 0.33 1.98 0.66 3 1v5h-3v-5h-2c-0.205-0.554-0.41-1.11-0.621-1.68-0.269-0.724-0.539-1.45-0.816-2.2-0.267-0.719-0.534-1.44-0.809-2.18-0.733-1.98-0.733-1.98-1.75-3.95z" fill="#008C42"/>
<path transform="translate(273,1172)" d="m0 0c0.33 0.66 0.66 1.32 1 2 2.33 0.374 4.66 0.708 7 1 1 1 1 1 1.06 3.56-0.0206 0.804-0.0412 1.61-0.0625 2.44-2.64-0.66-5.28-1.32-8-2-0.33-2.31-0.66-4.62-1-7z" fill="#134621"/>
<path transform="translate(1063,588)" d="m0 0c2 1 2 1 2.75 3.18 0.46 1.79 0.918 3.58 1.38 5.38 0.935 2.6 1.91 3.59 3.88 5.45 1.44 4.1 2.26 7.66 2 12-1.1-2.06-1.96-3.83-2.44-6.12-0.464-2.27-0.464-2.27-3.56-3.88-1.17-2.93-1.17-2.93-2.19-6.44-0.344-1.15-0.688-2.31-1.04-3.5-0.77-3.07-0.77-3.07-0.77-6.07z" fill="#0B2615"/>
<path transform="translate(1201,544)" d="m0 0h5v7c-1.81 0.688-1.81 0.688-4 1-1.75-1.44-1.75-1.44-3-3 0.66-1.65 1.32-3.3 2-5z" fill="#0B2514"/>
<path transform="translate(999,277)" d="m0 0h4v10h-4v-10z" fill="#0E2B15"/>
<path transform="translate(299,1230)" d="m0 0c3.96 1.98 3.96 1.98 8 4v4c-1.65-0.33-3.3-0.66-5-1v-2h-3v-5z" fill="#134621"/>
<path transform="translate(1192,563)" d="m0 0h2c0.625 2.81 0.625 2.81 1 6-2 3-2 3-4.12 3.69-0.619 0.103-1.24 0.206-1.88 0.312-0.364-4.24 0.461-6.58 3-10z" fill="#0B2514"/>
<path transform="translate(908,762)" d="m0 0h18v1c-5.45 0.495-5.45 0.495-11 1v1h-8c0.33-0.99 0.66-1.98 1-3z" fill="#008B46"/>
<path transform="translate(313,1226)" d="m0 0h1v5h-2c-0.33 1.65-0.66 3.3-1 5-0.99-0.66-1.98-1.32-3-2 0.33-0.99 0.66-1.98 1-3h2c0.66-1.65 1.32-3.3 2-5z" fill="#114420"/>
</svg>